<?xml version="1.0" standalone="no"?>
<!DOCTYPE svg PUBLIC "-//W3C//DTD SVG 20010904//EN"
 "http://www.w3.org/TR/2001/REC-SVG-20010904/DTD/svg10.dtd">
<svg version="1.0" xmlns="http://www.w3.org/2000/svg"
 width="870.000000pt" height="981.000000pt" viewBox="0 0 870.000000 981.000000"
 preserveAspectRatio="xMidYMid meet">

<g transform="translate(0.000000,981.000000) scale(0.100000,-0.100000)"
fill="#ffff"  stroke="none">
<path d="M4187 9784 c-38 -8 -92 -24 -120 -35 -91 -36 -3723 -2139 -3793
-2197 -116 -95 -215 -257 -251 -411 -17 -72 -18 -194 -18 -2246 0 -2455 -8
-2218 83 -2405 40 -82 59 -108 141 -190 l96 -95 503 -289 c634 -364 819 -449
1066 -492 117 -21 432 -14 546 11 224 50 415 162 540 318 62 77 153 258 180
357 52 193 50 113 50 2413 l0 2139 -29 29 -29 29 -267 0 c-163 0 -274 -4 -286
-10 -52 -28 -49 97 -49 -2152 0 -2264 3 -2133 -54 -2246 -123 -243 -436 -315
-749 -174 -36 17 -150 79 -254 139 -103 60 -326 189 -496 287 -169 98 -316
189 -327 203 -20 25 -20 43 -20 2130 0 1796 2 2108 14 2131 11 21 116 87 423
264 1245 720 3183 1837 3212 1852 18 10 46 16 61 14 15 -2 845 -476 1844
-1052 1453 -838 1820 -1054 1831 -1077 13 -25 15 -296 13 -2138 l-3 -2111 -25
-24 c-14 -14 -836 -493 -1828 -1065 -1562 -902 -1809 -1041 -1843 -1041 -41 0
-68 15 -764 430 -216 129 -237 140 -266 140 -13 0 -75 -29 -138 -64 -138 -75
-218 -111 -374 -167 -64 -22 -121 -47 -128 -55 -17 -20 -3 -60 29 -82 58 -42
1290 -766 1339 -788 99 -44 170 -58 303 -58 129 0 199 13 295 54 26 11 430
241 898 512 1845 1065 2075 1198 2447 1411 376 217 387 224 475 312 50 50 105
116 124 147 55 94 90 213 102 340 6 73 9 845 7 2203 -4 1980 -5 2094 -22 2160
-50 195 -174 370 -331 467 -22 14 -548 319 -1170 678 -621 359 -1434 828
-1805 1043 -371 215 -700 400 -730 413 -129 52 -314 68 -453 38z"/>
<path d="M5145 6989 c-517 -42 -929 -196 -1193 -444 -242 -228 -354 -498 -354
-855 0 -648 359 -992 1207 -1154 155 -30 355 -57 675 -91 589 -64 917 -133
1124 -237 70 -35 151 -108 177 -160 28 -56 41 -166 30 -258 -38 -302 -258
-468 -706 -535 -244 -36 -736 -39 -1000 -5 -340 43 -542 124 -686 276 -94 100
-150 222 -189 416 -24 118 -39 150 -75 166 -18 8 -115 12 -326 12 l-301 0 -35
-35 -36 -36 6 -137 c22 -493 256 -870 689 -1110 219 -121 541 -215 883 -256
591 -72 1219 -24 1643 125 504 178 818 504 913 949 32 147 32 429 1 570 -42
195 -108 324 -231 453 -250 262 -656 401 -1526 522 -928 129 -1217 196 -1347
313 -72 65 -83 99 -83 247 1 112 4 137 24 185 65 156 209 259 449 321 330 84
981 71 1277 -26 214 -70 354 -185 444 -364 46 -92 68 -155 101 -280 6 -24 24
-57 40 -73 l28 -28 309 0 c339 0 337 0 369 62 20 38 14 116 -21 294 -58 289
-170 508 -355 694 -283 285 -700 437 -1320 480 -167 11 -459 11 -605 -1z"/>
</g>
</svg>
