<?xml version="1.0" standalone="no"?>
<!DOCTYPE svg PUBLIC "-//W3C//DTD SVG 20010904//EN"
 "http://www.w3.org/TR/2001/REC-SVG-20010904/DTD/svg10.dtd">
<svg version="1.0" xmlns="http://www.w3.org/2000/svg"
 width="499.000000pt" height="499.000000pt" viewBox="0 0 499.000000 499.000000"
 preserveAspectRatio="xMidYMid meet">

<g transform="translate(0.000000,499.000000) scale(0.100000,-0.100000)"
fill="#ffff" stroke="none">
<path d="M2515 4610 c-136 -13 -315 -61 -315 -84 0 -9 -48 -25 -132 -45 -228
-56 -531 -165 -624 -226 -16 -10 -37 -12 -93 -5 -42 6 -81 6 -95 0 -24 -9 -61
-50 -71 -78 -3 -9 -53 -46 -112 -82 -59 -36 -132 -90 -162 -120 -56 -55 -188
-263 -266 -420 -36 -71 -37 -78 -32 -148 7 -97 -11 -142 -58 -142 -59 0 -70
-36 -31 -95 14 -20 30 -53 37 -73 14 -45 27 -62 55 -72 l22 -9 -19 -61 c-23
-74 -24 -108 -4 -137 12 -18 29 -22 112 -27 349 -24 688 -76 816 -125 l27 -11
0 -167 0 -168 -30 -28 -30 -29 1 -131 c0 -83 4 -125 9 -112 5 11 9 68 9 126 1
91 4 108 20 123 14 13 20 14 23 5 4 -13 92 -37 143 -39 24 -1 26 -3 11 -9 -10
-4 -41 -4 -70 0 -119 17 -76 -10 52 -32 91 -16 102 -30 103 -129 2 -90 2 -91
11 -106 12 -19 -3 -24 -71 -24 -109 1 -204 16 -218 36 -11 15 -13 15 -13 2 0
-8 11 -27 25 -42 20 -21 24 -35 21 -59 -5 -32 -16 -281 -18 -408 0 -37 -3 -71
-7 -76 -3 -4 -28 -14 -56 -21 -27 -7 -57 -21 -65 -31 -8 -10 -33 -23 -56 -29
-98 -28 -244 -63 -451 -107 -16 -4 -26 3 -42 30 -30 51 -75 75 -141 75 -155 0
-234 -116 -160 -235 27 -44 67 -65 135 -72 58 -6 93 10 145 67 21 23 40 30
130 44 58 9 134 25 170 35 237 68 255 72 330 65 l72 -7 -7 -76 c-4 -42 -3 -73
1 -68 4 4 10 40 13 80 l6 72 55 1 c51 1 52 1 8 -3 -48 -4 -68 -23 -25 -23 21
-1 21 -1 2 -12 -30 -16 -31 -18 -15 -28 10 -7 11 -10 3 -10 -7 0 -13 -7 -13
-15 0 -8 5 -15 11 -15 6 0 3 -7 -5 -16 -9 -8 -16 -22 -16 -29 0 -8 -9 -16 -19
-20 -11 -3 -47 -36 -81 -72 l-62 -66 -101 -9 c-57 -4 -107 -14 -113 -21 -16
-16 -52 -131 -60 -187 -5 -38 -3 -48 15 -64 20 -18 27 -18 85 -8 92 17 182 16
190 -3 3 -8 8 -56 12 -106 5 -70 12 -97 26 -111 34 -34 130 -19 215 35 38 24
42 33 93 179 29 84 56 156 60 161 3 4 60 19 126 33 65 14 191 41 280 60 l161
35 81 -21 c67 -17 109 -20 239 -19 177 2 208 10 257 71 55 70 68 79 86 63 26
-23 59 -18 187 26 135 48 143 53 143 86 0 27 -6 25 120 48 52 10 127 28 167
40 39 12 83 20 96 18 18 -4 35 5 65 31 24 22 50 36 65 36 15 0 42 8 62 17 19
9 37 14 40 11 3 -3 -2 -22 -10 -43 -9 -20 -14 -43 -11 -50 2 -7 27 -16 55 -20
91 -12 125 19 224 205 51 96 67 142 76 213 5 46 9 51 40 62 48 16 65 43 85
134 10 44 22 83 27 87 48 29 95 316 105 641 l7 213 -29 6 -30 6 -11 131 c-29
324 -133 663 -276 897 -135 220 -329 402 -576 540 -79 44 -111 67 -111 80 0
42 -42 68 -175 110 -148 46 -269 70 -361 70 -34 0 -93 6 -131 14 -87 18 -285
26 -388 16z m389 -44 c43 -8 80 -17 82 -19 2 -2 13 -82 24 -177 11 -95 22
-176 25 -180 3 -5 24 -11 48 -15 125 -20 174 -36 185 -60 11 -23 14 -180 9
-388 -1 -49 1 -91 5 -93 7 -5 4 -38 -7 -94 -3 -14 -6 -30 -7 -37 -2 -14 -40
-32 -62 -29 -9 1 -29 15 -46 31 -35 33 -40 23 -8 -14 12 -14 -22 17 -76 69
-54 52 -95 88 -91 80 5 -8 -6 -2 -23 14 -18 17 -32 25 -32 20 0 -6 14 -23 30
-39 19 -18 30 -23 30 -15 0 8 25 -10 55 -40 30 -30 55 -59 55 -64 0 -6 -25 14
-55 44 -30 30 -55 50 -55 45 0 -5 -45 35 -100 90 -55 55 -100 104 -100 110 0
5 29 -20 65 -55 36 -35 65 -60 65 -55 0 4 11 -2 25 -15 17 -16 25 -19 25 -9 0
7 36 -22 80 -66 44 -44 80 -75 80 -70 0 5 14 -4 30 -20 17 -17 30 -23 30 -15
0 9 6 8 20 -5 11 -10 20 -16 20 -13 0 2 -12 15 -27 29 -14 13 -23 17 -18 9 4
-8 -6 -2 -23 14 -20 19 -32 25 -32 16 0 -8 -36 21 -80 65 -44 44 -80 75 -80
71 0 -5 -11 1 -25 14 -17 16 -25 19 -25 10 0 -8 -27 12 -60 45 -33 33 -60 64
-60 69 0 6 25 -14 56 -44 31 -30 53 -48 49 -40 -4 8 8 -1 28 -19 21 -19 37
-31 37 -25 0 5 -45 54 -100 109 -55 55 -100 96 -100 91 0 -5 -9 -1 -20 9 -11
10 -20 14 -20 8 0 -5 9 -18 20 -28 15 -13 20 -15 20 -4 0 7 27 -13 60 -46 33
-33 60 -64 60 -69 0 -6 -25 14 -56 44 -31 30 -53 48 -49 40 4 -8 -8 1 -28 19
-48 46 -48 28 0 -21 21 -22 31 -38 23 -38 -8 0 -1 -13 18 -33 18 -18 32 -35
32 -39 0 -8 -53 -4 -67 5 -8 5 -13 3 -13 -5 0 -7 -39 26 -86 72 -48 47 -83 78
-79 70 5 -8 -6 -2 -23 14 -20 19 -32 25 -32 16 0 -8 -31 17 -70 55 -38 38 -70
65 -70 60 0 -5 -16 6 -35 25 -21 20 -35 28 -35 20 0 -8 -20 6 -45 30 -25 24
-45 42 -45 39 0 -2 25 -29 56 -59 31 -30 53 -48 49 -40 -5 8 6 2 23 -14 20
-19 32 -25 32 -16 0 8 34 -19 76 -60 42 -41 73 -68 69 -60 -5 8 6 2 23 -14 20
-19 32 -25 32 -16 0 8 29 -15 65 -50 36 -35 65 -69 65 -74 0 -6 -27 16 -60 49
-33 33 -60 55 -60 50 0 -5 -13 4 -30 20 -19 18 -30 24 -30 15 0 -8 -34 19 -75
60 -41 41 -75 71 -75 66 0 -5 -9 -1 -20 9 -15 14 -20 15 -20 4 0 -7 -35 20
-77 61 l-78 75 74 -77 c41 -43 77 -75 80 -73 2 3 13 -2 23 -12 14 -12 18 -13
18 -2 0 7 34 -20 75 -61 41 -41 75 -70 75 -65 0 5 27 -17 60 -50 33 -33 60
-62 60 -65 0 -4 -14 -6 -32 -6 -22 0 -39 8 -55 25 -15 18 -22 21 -23 11 0 -16
-130 108 -130 124 0 6 30 -19 66 -54 37 -36 63 -58 59 -50 -5 8 6 2 23 -14 19
-18 32 -24 32 -16 0 9 6 8 20 -5 11 -10 20 -16 20 -13 0 2 -12 15 -27 29 -14
13 -23 17 -18 9 4 -8 -6 -2 -23 14 -20 19 -32 25 -32 16 0 -8 -26 11 -58 43
-32 32 -60 55 -63 52 -3 -2 -58 49 -122 114 -64 65 -117 115 -117 111 0 -4
-11 -6 -25 -5 -14 2 -23 -1 -19 -6 3 -5 9 -7 13 -4 5 2 16 -4 26 -15 11 -13
21 -16 25 -10 3 5 82 -69 174 -165 92 -96 171 -173 176 -170 4 3 14 -3 21 -13
13 -15 12 -16 -3 -3 -15 11 -18 11 -18 0 0 -7 -34 20 -76 61 -42 41 -73 68
-69 60 5 -8 -6 -2 -23 14 -20 19 -32 25 -32 16 0 -8 -29 15 -65 50 -36 35 -65
69 -65 74 0 6 28 -16 61 -49 34 -33 58 -53 54 -45 -4 8 8 -1 28 -19 21 -19 37
-31 37 -25 0 5 -45 54 -100 109 -55 55 -100 96 -100 91 0 -5 -11 1 -25 14 -14
13 -25 19 -25 13 0 -5 11 -20 25 -33 17 -16 25 -19 25 -10 0 8 29 -15 65 -50
36 -35 65 -69 65 -74 0 -6 -27 16 -60 49 -33 33 -60 55 -60 50 0 -5 -23 13
-52 40 -49 48 -50 48 -20 10 35 -46 229 -237 217 -215 -5 8 6 2 23 -14 20 -19
32 -25 32 -16 0 8 25 -10 55 -40 30 -30 55 -59 55 -64 0 -5 -3 -6 -6 -3 -4 3
-15 2 -26 -4 -15 -8 -24 -7 -39 7 -10 9 -19 22 -19 27 0 6 12 0 28 -14 26 -23
26 -23 -2 9 -31 33 -42 41 -30 20 4 -7 -9 3 -29 21 -23 21 -37 29 -37 21 0 -8
-34 19 -75 60 -41 41 -75 70 -75 65 0 -5 -42 31 -92 80 -61 59 -70 66 -25 20
92 -96 85 -107 -10 -15 l-78 75 74 -77 c41 -43 77 -75 80 -73 2 3 20 -9 38
-27 20 -19 33 -26 33 -18 0 8 32 -17 71 -55 40 -39 68 -63 64 -55 -4 8 17 -9
48 -39 55 -54 72 -88 20 -40 -14 13 -23 17 -18 9 4 -8 -36 28 -90 80 -54 52
-94 88 -90 80 4 -8 -11 3 -34 25 -22 21 -41 35 -41 29 0 -5 48 -57 106 -114
59 -58 103 -98 99 -90 -5 8 6 2 23 -14 19 -18 32 -24 32 -16 0 9 6 8 21 -6 12
-11 16 -20 9 -22 -8 -3 -8 -8 1 -18 9 -11 9 -14 -1 -14 -10 0 -9 -4 1 -17 7
-10 -8 2 -34 27 -61 58 -61 40 0 -22 26 -26 41 -48 34 -48 -11 0 -11 -3 -1
-15 9 -11 9 -15 1 -15 -7 0 -9 -6 -5 -12 4 -7 -9 3 -29 21 -23 21 -37 29 -37
21 0 -8 -34 19 -75 60 -41 41 -75 70 -75 65 0 -5 -13 4 -30 20 -19 18 -30 23
-30 15 0 -8 -25 10 -55 40 -30 30 -55 59 -55 64 0 6 25 -14 55 -44 30 -30 55
-50 55 -45 0 5 14 -4 30 -20 17 -16 30 -24 30 -19 0 13 -195 206 -201 199 -3
-3 -14 5 -25 17 l-19 23 23 -19 c16 -14 22 -15 22 -5 0 7 34 -20 76 -61 42
-41 73 -68 69 -60 -5 8 6 2 23 -14 20 -19 32 -25 32 -16 0 8 25 -10 55 -40 30
-30 55 -59 55 -64 0 -6 -22 12 -50 39 -27 27 -50 45 -50 40 0 -4 -11 2 -25 15
-14 13 -25 19 -25 14 0 -5 43 -52 96 -104 53 -52 93 -88 89 -80 -5 8 6 2 23
-14 18 -17 32 -25 32 -20 0 6 -13 23 -30 39 -19 18 -30 23 -30 15 0 -8 -27 12
-60 45 -33 33 -60 64 -60 69 0 6 25 -14 56 -44 31 -30 53 -48 49 -40 -4 8 13
-5 39 -30 25 -24 46 -40 46 -34 0 5 -50 59 -111 119 -62 61 -108 103 -104 95
5 -8 -6 -2 -23 14 -20 19 -32 25 -32 16 0 -8 -34 19 -76 60 -42 41 -73 68 -69
60 7 -12 6 -13 -6 -2 -8 7 -14 20 -14 29 0 9 -7 19 -15 21 -13 5 -13 3 -1 -11
7 -10 9 -17 4 -17 -6 0 -9 -40 -8 -100 1 -54 -2 -97 -7 -94 -4 3 -8 0 -8 -6 0
-7 6 -10 13 -7 6 3 59 -41 116 -97 57 -55 100 -94 96 -86 -4 8 8 -1 28 -19 22
-21 37 -29 37 -21 0 8 18 -3 40 -25 22 -21 40 -42 40 -45 0 -4 -20 -6 -44 -6
-32 1 -51 8 -70 25 -29 28 -35 19 -9 -13 10 -12 -23 17 -71 64 -49 47 -85 78
-81 70 5 -8 -6 -2 -23 14 -19 18 -32 24 -32 16 0 -9 -6 -8 -22 6 l-23 19 19
-23 c11 -12 22 -20 24 -17 3 3 18 -7 34 -22 18 -17 28 -22 28 -13 0 16 90 -68
123 -115 15 -21 16 -26 4 -16 -14 11 -17 11 -17 0 0 -7 -25 11 -55 41 -30 30
-55 50 -55 45 0 -5 -22 12 -48 38 -39 39 -48 44 -47 27 1 -11 10 -28 20 -38
13 -12 16 -13 10 -2 -4 8 8 -1 28 -19 22 -21 37 -29 37 -21 0 8 18 -3 40 -25
22 -21 40 -42 40 -45 0 -3 -16 -6 -35 -7 -19 0 -35 4 -35 9 0 5 5 6 10 3 16
-10 11 1 -7 16 -15 12 -16 12 -8 -1 4 -8 -8 1 -28 19 -21 20 -37 29 -37 21 0
-9 -6 -8 -22 6 l-23 19 19 -22 c10 -13 22 -21 26 -18 4 2 20 -10 36 -28 l29
-32 -33 29 c-34 32 -44 26 -15 -8 10 -12 2 -7 -16 9 -33 29 -34 20 -2 -20 15
-18 15 -19 -1 -6 -10 7 -18 10 -18 6 0 -5 -10 0 -21 11 -21 19 -21 22 -14 299
9 361 5 354 160 375 128 18 115 -4 115 195 l0 174 70 21 c167 50 416 60 604
26z m237 -22 c200 -33 424 -113 396 -140 -3 -3 -12 -2 -19 2 -7 5 -18 9 -24
10 -6 1 -27 9 -45 17 -53 23 -73 30 -83 28 -4 -1 -14 3 -20 9 -7 5 -16 7 -19
4 -3 -3 -12 -2 -19 2 -7 5 -17 9 -23 11 -5 1 -21 5 -35 8 -14 3 -32 8 -40 10
-8 2 -17 4 -20 5 -3 1 -9 3 -15 5 -5 1 -14 3 -20 5 -15 4 -26 6 -82 14 -29 5
-53 12 -53 17 0 12 12 11 121 -7z m109 -84 c281 -72 569 -229 758 -413 210
-205 359 -481 438 -814 31 -130 64 -348 64 -420 0 -51 -1 -53 -27 -53 -64 0
-447 40 -453 47 -4 5 -30 44 -60 88 -126 190 -341 420 -452 483 -70 40 -160
72 -205 72 -38 0 -39 2 -15 37 14 23 17 57 20 228 2 110 -1 249 -6 309 -12
138 -18 146 -156 171 -53 9 -96 20 -96 23 0 4 -7 63 -15 132 -21 176 -27 160
53 145 37 -7 105 -23 152 -35z m-1052 -122 l-3 -143 -89 -12 c-99 -13 -131
-30 -158 -84 -16 -31 -18 -73 -20 -333 l-3 -298 28 -24 c16 -14 42 -24 60 -25
18 -1 -17 -9 -78 -19 -60 -9 -130 -23 -155 -30 -143 -38 -261 -164 -311 -328
-7 -23 -16 -42 -20 -42 -4 0 -33 6 -63 14 -49 13 -280 34 -362 33 -30 0 -258
77 -281 95 -9 7 -9 20 2 54 21 71 62 131 145 214 85 83 93 100 105 221 20 204
154 404 358 537 92 59 287 151 417 197 96 34 387 114 418 115 10 0 12 -32 10
-142z m-928 -128 c-33 -26 -52 -25 -21 0 13 11 28 20 35 20 6 0 0 -9 -14 -20z
m31 -40 c-127 -90 -228 -207 -280 -325 -28 -62 -61 -197 -61 -248 0 -60 -22
-97 -109 -184 -55 -56 -89 -99 -105 -135 -13 -29 -28 -64 -35 -78 l-11 -25 5
27 c3 14 8 34 11 45 5 17 4 17 -10 -1 -9 -11 -16 -14 -16 -8 0 24 53 97 114
160 33 34 60 66 60 70 -1 4 7 24 17 44 23 45 25 101 4 118 -25 21 4 110 36
110 4 0 6 -8 4 -17 -2 -10 -6 -60 -9 -112 -7 -130 11 -104 24 35 13 129 23
171 58 239 35 66 38 75 12 45 -26 -31 -65 -106 -73 -141 -5 -20 -24 -34 -81
-63 -69 -34 -126 -83 -126 -109 0 -6 11 0 24 12 30 29 53 19 31 -12 -20 -28
-21 -59 -1 -31 13 17 13 14 4 -26 -17 -74 -27 -90 -59 -104 l-32 -13 46 -7
c35 -5 52 -3 72 10 36 23 43 11 7 -14 -19 -14 -49 -22 -88 -25 -44 -2 -53 -5
-36 -11 27 -10 27 -10 -3 -71 -13 -27 -32 -71 -41 -97 -16 -47 -25 -53 -67
-50 -14 2 -17 -3 -12 -18 10 -31 0 -24 -29 20 -29 44 -27 60 7 60 20 -1 21 -2
4 -14 -22 -17 -22 -26 1 -26 23 0 43 22 72 80 21 41 22 50 12 100 -8 37 -9 67
-3 88 24 83 242 443 298 493 21 18 69 53 108 78 83 54 306 180 319 181 5 0
-23 -23 -63 -50z m729 -259 c0 7 32 -18 70 -56 39 -38 70 -74 70 -79 0 -6 -24
13 -53 42 -29 29 -55 50 -58 47 -3 -2 -21 12 -40 32 -19 21 -24 29 -11 19 16
-14 22 -16 22 -5z m140 -176 c0 5 14 -4 30 -20 19 -18 30 -24 30 -15 0 8 33
-18 73 -58 40 -40 75 -70 78 -67 3 2 19 -10 35 -28 l29 -32 -32 29 c-21 19
-33 25 -33 16 0 -8 -31 17 -70 55 -38 38 -70 65 -70 60 0 -4 -11 2 -25 15 -17
16 -25 19 -25 9 0 -7 -35 21 -78 64 -43 43 -80 75 -83 72 -3 -3 -14 5 -25 17
l-19 23 23 -19 c28 -25 29 -10 0 23 -12 14 19 -14 70 -64 51 -49 92 -85 92
-80z m190 21 c0 -6 -27 16 -60 49 -33 33 -60 64 -60 69 0 6 27 -16 60 -49 33
-33 60 -64 60 -69z m-330 65 c0 7 36 -22 80 -66 44 -44 80 -75 80 -71 0 5 11
-1 25 -14 17 -16 25 -19 25 -10 0 8 32 -17 70 -55 39 -38 70 -66 70 -61 0 5 9
1 20 -9 15 -14 17 -22 9 -37 -6 -11 -17 -17 -25 -14 -8 3 -14 0 -14 -6 0 -7
-20 8 -45 32 -60 59 -58 76 3 20 36 -34 33 -31 -10 15 -74 77 -76 97 -3 25 30
-29 64 -55 76 -57 19 -3 20 -1 8 13 -9 11 -14 13 -17 4 -3 -7 -30 13 -63 46
-33 32 -59 54 -59 49 0 -5 -13 4 -30 20 -16 16 -30 24 -30 19 0 -6 18 -27 40
-49 28 -27 36 -41 27 -47 -7 -4 -27 7 -51 30 -27 26 -37 31 -32 17 4 -11 -22
9 -58 45 -37 35 -66 69 -66 74 0 6 27 -16 60 -49 33 -33 60 -55 60 -50 0 5 14
-4 30 -20 17 -16 30 -24 30 -19 0 13 -195 206 -201 199 -3 -3 -16 7 -30 22
-22 25 -22 26 -1 9 16 -14 22 -16 22 -5z m660 -85 c0 -13 -69 53 -82 79 -6 11
10 0 36 -25 25 -24 46 -49 46 -54z m-650 44 c0 8 32 -17 70 -55 39 -38 70 -74
70 -79 0 -6 -26 15 -58 47 -32 32 -60 55 -63 52 -3 -2 -21 12 -40 33 -22 24
-25 28 -6 13 18 -17 27 -20 27 -11z m798 -82 c15 -15 17 -132 2 -123 -5 3 -10
30 -10 60 0 30 -4 56 -9 59 -5 3 -79 3 -165 -1 l-156 -6 0 -53 c0 -29 -4 -56
-10 -59 -11 -7 -14 92 -4 119 5 14 30 16 173 16 117 0 171 -4 179 -12z m158
-113 c-4 12 15 -2 47 -33 29 -29 56 -50 58 -47 3 3 14 -5 25 -17 12 -14 13
-18 3 -10 -9 6 -19 9 -22 5 -4 -3 -13 0 -22 7 -8 7 -15 8 -15 3 0 -5 -20 -9
-45 -9 -41 0 -49 4 -102 58 -31 32 -51 58 -44 58 11 0 11 3 0 18 -7 9 13 -8
44 -38 31 -30 57 -48 57 -40 0 9 12 2 33 -17 45 -43 69 -31 26 13 -24 25 -36
31 -49 24 -13 -7 -28 3 -71 48 l-54 57 53 -50 c67 -64 67 -47 0 25 -48 49 -46
48 16 -10 39 -37 66 -56 62 -45z m-201 75 c10 -11 16 -20 13 -20 -3 0 -13 9
-23 20 -10 11 -16 20 -13 20 3 0 13 -9 23 -20z m-210 -20 c28 -27 34 -17 8 14
-13 15 -10 14 10 -3 16 -15 27 -19 27 -12 0 11 4 11 18 0 15 -13 16 -12 3 3
-7 10 -17 16 -21 13 -5 -3 -11 -2 -14 3 -3 5 28 8 69 8 69 -1 76 -3 102 -31
l28 -30 -32 30 c-19 16 -33 23 -33 16 0 -11 -3 -11 -17 0 -16 13 -17 12 -4 -3
7 -10 17 -16 21 -13 4 2 18 -8 31 -23 18 -20 19 -22 3 -9 -11 9 -24 14 -27 10
-4 -3 -22 7 -39 23 -18 16 -25 20 -15 8 20 -24 22 -39 5 -28 -16 10 -76 12
-91 2 -7 -4 -23 4 -39 19 -31 30 -38 22 -11 -11 10 -12 3 -8 -15 8 -17 17 -32
31 -32 33 0 11 44 -7 65 -27z m-39 -22 c10 -12 13 -18 7 -14 -7 4 -13 2 -13
-4 0 -6 -4 -9 -9 -5 -8 4 -12 45 -5 45 0 0 9 -10 20 -22z m-1671 -46 c-1 -40
-6 -57 -25 -77 -30 -32 -38 -31 -51 1 -12 32 2 80 32 113 31 33 44 21 44 -37z
m1921 -17 c64 -28 125 -88 160 -157 23 -43 28 -70 32 -143 5 -107 -16 -176
-75 -245 -34 -39 -116 -100 -135 -100 -19 0 -6 21 23 36 55 28 121 97 147 154
34 74 36 192 4 262 -86 192 -324 248 -479 113 -105 -92 -137 -243 -79 -372 20
-44 34 -63 47 -63 31 0 99 -75 99 -110 0 -19 -54 16 -99 65 -70 76 -86 122
-86 245 0 91 3 111 25 155 80 162 258 230 416 160z m164 -72 c0 -8 -9 0 -50
45 l-45 47 48 -45 c26 -24 47 -45 47 -47z m90 24 c0 -6 -11 0 -25 13 -14 13
-25 28 -25 33 0 6 11 0 25 -13 14 -13 25 -28 25 -33z m-278 3 c65 -24 128 -86
160 -155 32 -72 31 -184 -3 -245 -28 -51 7 -49 -299 -25 -102 8 -192 15 -202
15 -24 0 -39 56 -39 141 0 90 32 160 97 218 80 71 185 89 286 51z m606 -106
c94 -24 190 -93 322 -230 63 -65 126 -135 140 -154 14 -19 -22 12 -78 70 -57
58 -99 96 -93 85 5 -11 25 -36 45 -54 20 -19 36 -39 36 -45 0 -5 -15 4 -33 22
-52 50 -56 37 -6 -15 74 -78 109 -123 109 -139 0 -9 -4 -14 -9 -12 -16 5 -321
282 -321 291 0 4 10 21 21 37 14 17 19 35 15 46 -6 15 -11 11 -32 -20 -17 -24
-31 -35 -41 -32 -8 3 -108 7 -221 8 -191 1 -198 2 -92 8 63 4 139 8 169 9 87
2 53 11 -59 16 -117 6 -145 14 -49 16 57 1 60 2 29 9 -19 5 -77 12 -127 16
-51 4 -93 11 -93 15 0 5 87 9 193 10 234 1 189 15 -153 46 -53 5 -84 18 -76
32 7 11 336 -18 404 -35z m-1028 7 c0 -32 -14 -41 -66 -41 l-54 0 0 -50 c0
-52 1 -54 53 -50 15 1 27 -3 27 -9 0 -6 -16 -12 -35 -12 -19 -1 -39 -3 -45 -4
-5 -1 -115 -4 -242 -5 -196 -2 -227 -4 -195 -14 21 -6 35 -15 31 -19 -4 -4 15
-7 42 -7 32 0 44 -3 35 -9 -8 -5 39 -11 125 -16 156 -7 163 -8 169 -30 16 -49
18 -50 27 -12 9 33 13 37 41 36 24 -1 26 -3 10 -6 -22 -4 -23 -9 -23 -84 l0
-79 30 0 29 0 4 78 c3 77 3 77 5 -19 l2 -97 -187 -4 c-163 -5 -202 -9 -293
-33 -58 -15 -108 -30 -112 -34 -4 -3 52 3 125 16 106 18 176 22 358 23 153 2
233 -2 248 -9 16 -9 21 -22 22 -54 l1 -42 13 30 14 30 1 -47 0 -48 -152 0
c-84 0 -184 -3 -223 -8 l-70 -7 99 -5 c59 -3 101 -9 103 -16 5 -15 -141 -57
-178 -52 -19 3 -29 0 -29 -8 0 -19 -41 -44 -70 -43 -22 0 -21 2 10 13 31 12
35 17 33 46 -2 52 -23 65 -106 66 -40 0 -106 5 -147 11 -84 12 -258 75 -277
100 -12 16 -13 15 -13 -1 0 -9 -4 -14 -10 -11 -16 10 -12 65 6 72 9 3 40 -1
68 -11 71 -22 121 -20 167 6 68 38 99 140 64 207 -13 26 -64 57 -122 75 -77
24 55 105 215 133 89 15 409 59 450 62 12 0 22 -3 22 -8z m-40 -101 c0 -16 -7
-20 -30 -20 -23 0 -30 4 -30 20 0 16 7 20 30 20 23 0 30 -4 30 -20z m-677 -99
c3 -14 -3 -21 -29 -29 -40 -12 -41 -10 -12 28 23 31 33 32 41 1z m1736 -31
c13 -9 29 -31 35 -50 6 -18 17 -35 24 -38 10 -3 10 2 1 21 -8 18 -8 30 0 43 9
17 10 17 11 2 0 -10 9 -32 19 -49 l20 -32 -51 -74 c-28 -41 -54 -76 -58 -78
-3 -2 -34 5 -67 15 -34 10 -94 20 -134 21 -39 1 -86 6 -103 10 -19 5 0 6 49 3
100 -7 94 2 -11 17 -96 13 -117 28 -104 79 5 24 8 28 9 13 2 -45 21 -22 21 25
0 80 22 89 221 88 68 -1 102 -5 118 -16z m-1688 -20 c24 -13 49 -61 49 -94 0
-32 -46 -83 -82 -92 -27 -6 -28 -5 -28 32 0 22 7 61 15 88 16 52 12 74 -10 56
-18 -15 -45 -96 -45 -133 0 -29 0 -30 -20 -12 -41 37 -31 126 17 154 23 13 79
14 104 1z m-991 -15 c10 -13 10 -19 -5 -35 -10 -11 -15 -26 -12 -34 4 -9 2
-18 -2 -21 -11 -6 -27 13 -34 40 -3 13 -5 9 -6 -12 -1 -35 -9 -41 -29 -21 -19
19 -14 47 13 73 27 28 57 32 75 10z m510 -210 c250 -92 478 -174 505 -182 45
-13 235 -21 275 -11 9 2 16 -6 18 -18 2 -17 -4 -23 -29 -28 -51 -10 -231 -7
-274 5 -65 18 -989 360 -999 369 -13 13 14 42 33 37 9 -2 221 -80 471 -172z
m547 153 c-3 -8 -6 -5 -6 6 -1 11 2 17 5 13 3 -3 4 -12 1 -19z m29 -30 c-6
-34 -50 -97 -60 -88 -3 3 1 19 9 34 8 16 15 34 15 41 0 7 7 15 15 19 8 3 15
13 15 22 0 10 3 15 6 11 4 -3 4 -21 0 -39z m1819 -49 c17 -19 14 -18 -17 5
-49 37 -48 24 2 -30 22 -24 40 -52 40 -62 0 -10 -15 -36 -33 -57 l-34 -39 -66
53 c-37 29 -67 56 -67 60 0 4 18 33 40 64 22 30 40 63 40 72 0 13 8 10 38 -13
20 -16 46 -40 57 -53z m-912 50 c108 -7 197 -16 197 -21 0 -10 12 -11 -229 8
-113 8 -210 20 -216 26 -7 7 0 8 20 5 17 -4 119 -12 228 -18z m-1147 -66 c4
-20 0 -23 -26 -23 -16 0 -30 1 -30 3 0 2 8 26 17 53 l17 49 8 -30 c5 -17 11
-40 14 -52z m-766 6 c36 -14 40 -18 20 -19 -35 -1 -10 -14 60 -31 42 -10 50
-14 32 -18 -17 -5 -4 -13 60 -36 l83 -30 -55 -5 c-67 -6 -56 -15 30 -25 116
-13 439 -85 554 -125 61 -21 165 -64 231 -96 119 -58 121 -58 220 -61 67 -2
93 0 80 6 -11 5 -31 10 -45 12 -14 1 3 6 38 11 35 4 85 17 112 27 40 15 47 16
43 4 -5 -13 -1 -13 25 1 35 18 162 50 169 42 9 -9 -46 -56 -66 -56 -11 0 -57
-14 -102 -30 -181 -67 -316 -59 -496 30 -136 67 -184 85 -300 114 -142 36
-314 64 -508 81 -358 33 -320 26 -323 59 -4 32 24 143 40 164 12 13 25 11 98
-19z m1795 -124 c-16 -75 -74 -199 -122 -262 -15 -20 -84 -83 -152 -140 -125
-103 -202 -145 -311 -168 -56 -12 -28 5 58 35 105 37 147 63 268 164 172 144
235 255 261 466 7 62 8 63 11 21 2 -24 -4 -76 -13 -116z m184 10 c10 -99 15
-118 52 -193 53 -104 121 -202 201 -287 52 -56 79 -75 165 -116 57 -27 103
-54 103 -59 0 -16 -10 -13 -115 39 -113 56 -166 104 -261 236 -114 160 -165
302 -163 455 2 81 5 65 18 -75z m-1364 95 c57 -16 60 -19 57 -46 -2 -16 -7
-33 -11 -37 -7 -7 -122 31 -286 94 l-50 19 115 -6 c63 -4 142 -15 175 -24z
m2563 -112 c81 -121 159 -252 207 -348 l35 -69 -29 -6 c-48 -10 -74 -48 -79
-113 -5 -72 19 -125 75 -167 21 -16 40 -30 42 -32 5 -4 -58 -163 -70 -177 -4
-4 -26 52 -49 125 -51 165 -203 647 -236 748 l-24 75 23 33 c12 18 25 33 29
33 4 0 38 -46 76 -102z m-795 73 c118 -8 132 -11 201 -45 47 -23 102 -62 150
-107 91 -85 111 -123 231 -444 97 -258 109 -299 129 -424 9 -52 18 -97 22
-100 7 -6 -1 117 -11 174 -5 26 -4 27 4 8 6 -13 13 -23 15 -23 3 0 35 12 71
27 65 27 74 38 55 73 -10 18 -13 18 -82 -11 -39 -16 -72 -28 -72 -27 -12 24
-72 217 -66 213 4 -3 38 9 74 25 60 27 66 33 60 53 -11 38 -19 38 -90 8 -38
-16 -70 -29 -70 -28 -1 1 -27 67 -58 147 -32 80 -70 170 -86 201 l-28 56 60
81 c53 73 61 81 79 71 12 -6 28 -8 37 -4 11 4 14 3 7 -4 -5 -5 -21 -11 -35
-13 l-25 -4 27 -12 c34 -14 51 -46 50 -91 -2 -37 -30 -74 -75 -98 -46 -23 -26
-25 38 -3 32 11 64 20 71 20 11 0 26 -40 65 -165 l9 -30 -20 25 c-24 30 -24
28 -5 -33 15 -51 17 -49 -50 -85 -27 -15 -2 -15 49 -1 23 6 42 7 48 1 8 -8 58
-145 58 -160 0 -3 -7 3 -15 14 -17 23 -19 12 -4 -39 12 -45 4 -58 -50 -87 -44
-23 -32 -25 33 -5 68 21 85 8 115 -86 13 -41 28 -79 33 -86 13 -16 -68 -199
-100 -224 -20 -15 -41 -19 -105 -19 -97 0 -97 10 -1 14 38 1 79 7 91 14 20 11
86 134 98 185 3 12 -1 38 -9 57 l-15 35 1 -46 c1 -35 -6 -60 -27 -95 -32 -57
-54 -84 -67 -84 -5 0 7 19 26 42 49 57 45 69 -6 21 -24 -21 -58 -45 -76 -52
-30 -13 -36 -12 -60 6 -15 11 -31 35 -36 53 -8 27 -7 35 10 47 17 13 14 14
-32 8 -44 -6 -52 -4 -58 12 -5 13 -4 15 4 7 12 -12 57 -7 66 7 3 5 -8 6 -25 3
-23 -5 -32 -2 -40 14 -16 31 -13 40 5 14 8 -12 19 -20 23 -18 4 3 24 6 44 8
32 2 36 5 31 23 -24 75 -28 77 -93 40 -24 -14 -45 -24 -46 -23 -7 11 -125 388
-125 401 0 9 14 24 31 32 38 20 31 31 -11 17 -28 -10 -32 -9 -40 14 -19 48
-23 103 -10 119 7 9 10 18 7 22 -4 3 0 15 8 27 29 40 18 63 -62 145 -43 43
-100 90 -126 106 l-48 28 -27 -26 c-26 -25 -31 -26 -154 -25 l-128 1 0 44 0
43 -50 0 -50 0 0 -50 0 -49 103 -4 102 -3 -107 -2 c-67 -1 -108 2 -108 8 0 6
-4 10 -10 10 -5 0 -10 -7 -10 -15 0 -12 -13 -15 -55 -15 -30 0 -55 5 -55 10 0
6 23 10 50 10 l50 0 1 53 c1 38 3 45 8 27 l7 -25 11 32 c6 17 9 34 6 37 -8 8
85 7 240 -3z m-445 -40 c2 -7 -12 -11 -36 -11 -43 0 -72 8 -72 19 0 11 104 4
108 -8z m982 -17 c0 -4 -18 -31 -96 -143 -2 -1 -7 0 -13 3 -5 4 13 37 42 76
46 62 67 82 67 64z m-830 -24 c0 -16 -7 -20 -30 -20 -18 0 -30 5 -30 13 0 20
10 27 37 27 16 0 23 -6 23 -20z m140 0 c0 -16 -7 -20 -30 -20 -23 0 -30 4 -30
20 0 16 7 20 30 20 23 0 30 -4 30 -20z m630 7 c0 -2 -11 -18 -25 -37 -14 -19
-25 -28 -25 -20 0 8 10 24 22 37 20 22 28 27 28 20z m-920 -17 c0 -5 -10 -10
-22 -9 -22 0 -22 1 -3 9 11 5 21 9 23 9 1 1 2 -3 2 -9z m-90 -25 c0 -21 -4
-25 -27 -24 -24 2 -25 2 -5 6 14 3 22 12 22 24 0 10 2 19 5 19 3 0 5 -11 5
-25z m68 -18 l37 -4 -42 -1 c-39 -2 -43 0 -42 21 1 16 3 17 6 5 3 -11 17 -18
41 -21z m703 -5 c43 -32 104 -88 137 -124 23 -25 23 -27 7 -52 -19 -29 -61
-37 -51 -10 5 12 2 15 -13 11 -14 -3 -32 9 -63 41 -23 26 -34 39 -22 29 25
-21 41 -22 24 -2 -18 21 -3 19 31 -6 49 -34 32 -7 -36 61 -61 60 -75 80 -57
80 4 0 23 -13 43 -28z m988 -69 l194 -18 -6 -211 c-4 -116 -10 -219 -13 -229
-6 -14 -16 -7 -62 37 -30 29 -51 46 -47 38 4 -8 -38 30 -94 85 -55 55 -101
104 -101 110 0 5 41 -35 92 -89 51 -54 94 -93 96 -86 3 7 27 -10 60 -41 31
-30 50 -46 43 -36 -11 14 -11 17 0 17 7 0 -8 22 -34 48 -61 62 -61 79 1 22
l47 -45 -49 52 c-28 29 -52 50 -55 47 -6 -6 -211 197 -211 211 0 5 28 -18 63
-52 43 -44 66 -60 76 -54 9 6 10 11 2 15 -6 4 -11 1 -11 -6 0 -7 -22 10 -50
37 -64 63 -66 84 -3 25 26 -25 39 -34 28 -20 -11 14 2 5 28 -20 82 -77 51 -28
-38 60 -67 66 -92 85 -115 86 -34 1 -38 -7 -13 -27 15 -12 16 -12 10 5 -6 16
-5 17 8 6 11 -9 15 -9 15 -1 0 7 5 9 11 5 8 -4 4 -11 -11 -19 -13 -7 -18 -15
-12 -19 6 -3 12 -1 14 5 2 7 9 5 17 -5 25 -30 -26 -13 -62 21 -17 17 -40 30
-49 30 -10 0 -16 -2 -14 -4 2 -3 7 -3 10 -1 7 4 146 -134 146 -146 0 -5 -14 3
-32 20 -17 16 -28 22 -23 14 4 -8 -27 19 -69 60 -42 41 -76 70 -76 65 0 -5 37
-47 82 -92 46 -46 76 -83 68 -83 -8 0 -2 -13 18 -33 39 -41 43 -61 4 -24 -16
15 -31 25 -33 22 -3 -2 -21 12 -40 33 l-34 37 38 -34 c55 -52 45 -25 -15 39
l-53 55 53 -50 c78 -74 63 -40 -19 40 -39 39 -77 83 -86 99 l-15 29 63 -6 c35
-3 151 -14 258 -24z m-1116 5 c64 -19 157 -113 205 -206 40 -79 78 -180 69
-188 -2 -2 -14 24 -27 58 -55 154 -140 271 -225 309 -35 16 -69 19 -257 19
-133 0 -219 4 -223 10 -9 15 407 13 458 -2z m-787 -7 c-3 -4 -31 -11 -63 -14
-32 -2 -85 -15 -118 -27 -33 -12 -89 -33 -125 -46 -76 -27 -193 -31 -250 -8
-19 8 -24 11 -10 8 14 -3 57 -8 95 -11 64 -4 80 -1 175 35 95 36 170 55 255
65 17 2 34 5 38 6 5 0 6 -3 3 -8z m254 3 c-36 -7 -190 -10 -190 -2 0 4 46 7
103 7 56 -1 95 -3 87 -5z m522 -50 c27 -9 63 -33 88 -57 43 -44 94 -117 72
-103 -15 9 -15 5 -2 -28 l9 -26 -39 25 c-22 14 -44 25 -49 25 -5 0 -22 11 -38
24 -74 62 -107 70 -274 74 -152 4 -157 4 -167 27 -10 21 -8 23 26 29 20 3 78
6 129 6 50 0 95 5 98 10 9 15 96 12 147 -6z m1049 -36 l33 -43 -37 34 c-33 31
-46 51 -33 51 2 0 19 -19 37 -42z m-1527 10 c9 -12 16 -26 16 -30 0 -5 -70 -8
-155 -8 -85 0 -155 3 -155 8 0 4 6 15 14 24 10 14 33 18 122 21 60 1 117 4
126 5 9 1 24 -8 32 -20z m-1099 -55 c23 -15 20 -16 -22 -4 -27 8 -32 6 -36
-11 -3 -10 0 -21 6 -23 85 -24 85 -23 35 -18 -39 5 -48 3 -48 -10 0 -11 17
-19 55 -27 30 -6 55 -14 55 -17 0 -3 -10 -3 -22 0 -80 18 -88 19 -88 3 0 -10
19 -21 56 -32 63 -18 69 -28 9 -14 -61 14 -75 12 -75 -10 0 -13 9 -22 28 -26
75 -17 85 -23 30 -17 -49 4 -58 3 -58 -11 0 -9 12 -18 28 -22 64 -14 76 -22
25 -17 -67 7 -71 -11 -5 -25 l47 -11 -42 2 c-69 2 -54 -17 22 -29 76 -12 43
-18 -43 -7 l-53 6 6 126 c3 69 8 149 11 178 l5 52 27 -12 c15 -6 36 -17 47
-24z m2615 -47 c0 12 195 -182 222 -221 16 -23 10 -19 -25 15 -26 24 -47 40
-47 35 0 -12 -178 164 -192 190 -9 17 -6 16 16 -4 14 -14 26 -20 26 -15z
m-1183 -36 c0 -16 7 -38 15 -47 14 -17 12 -20 -33 -51 -27 -17 -49 -28 -49
-23 0 5 16 19 35 31 39 24 41 33 20 70 l-14 25 -1 -32 c0 -23 -6 -36 -22 -44
-22 -12 -22 -11 -8 6 15 18 14 18 -17 0 -26 -15 -34 -16 -47 -6 -9 8 -16 17
-16 21 0 10 110 80 126 80 6 0 11 -13 11 -30z m168 3 c70 -21 148 -76 202
-142 59 -72 148 -256 213 -441 68 -191 121 -301 173 -354 54 -57 83 -64 147
-37 27 11 51 21 55 21 12 0 -26 -59 -47 -74 -33 -23 -109 -21 -142 5 -67 53
-182 259 -246 441 -86 247 -121 317 -202 403 -67 72 -129 109 -216 126 -71 15
-103 39 -82 64 14 17 64 13 145 -12z m-456 11 c40 -8 90 -69 73 -86 -28 -28
-2 -100 47 -135 16 -11 36 -13 69 -9 l47 5 -40 -19 c-32 -15 -36 -20 -22 -25
9 -4 33 -4 52 -1 30 6 36 4 48 -21 8 -15 17 -45 21 -65 7 -39 25 -52 27 -20 1
9 7 -10 13 -43 l12 -60 -111 -6 c-111 -5 -177 -22 -350 -86 -88 -32 -294 -135
-352 -175 -25 -16 -45 -28 -46 -26 -18 33 -30 46 -58 62 l-34 19 27 -27 c36
-35 46 -73 24 -94 -15 -15 -16 -14 -16 8 0 20 -2 22 -10 10 -5 -8 -10 -10 -10
-4 0 5 -7 19 -16 30 -8 10 -13 13 -9 7 8 -17 -7 -16 -47 1 -18 8 -61 23 -95
33 -62 19 -62 19 -60 -1 1 -12 -5 -22 -14 -24 -34 -7 -30 62 12 227 58 229
103 331 144 331 3 0 -3 -17 -14 -37 -20 -41 -91 -262 -91 -284 0 -8 22 37 49
98 73 170 134 262 205 308 28 18 181 65 213 65 13 0 23 5 23 10 0 11 -47 6
-144 -15 l-58 -13 24 25 c15 15 43 27 74 32 59 10 349 14 393 5z m-914 -24
c92 -24 177 -25 260 -5 82 20 83 19 39 -13 -21 -16 -56 -48 -77 -71 -42 -47
-141 -93 -177 -84 -43 11 -69 -5 -81 -52 -9 -37 -13 -42 -25 -31 -7 8 -19 16
-25 18 -17 6 -12 258 5 258 2 0 38 -9 81 -20z m2325 -9 c0 7 13 0 30 -16 17
-16 30 -25 30 -20 0 5 36 -26 80 -70 44 -44 80 -73 80 -65 0 9 11 3 31 -16 37
-35 83 -97 56 -75 -22 17 -22 4 0 -23 10 -12 -6 1 -35 29 -29 27 -52 54 -52
59 0 5 17 -6 38 -25 l37 -34 -34 37 c-19 21 -37 35 -40 33 -3 -3 -36 25 -73
62 -37 37 -68 61 -68 53 0 -9 -7 -7 -23 8 -13 12 -26 20 -28 17 -3 -3 -19 10
-35 27 -16 18 -21 26 -11 19 14 -11 17 -11 17 0z m82 -86 c3 3 55 -46 115
-109 116 -121 113 -114 98 -193 -3 -16 -6 -40 -7 -55 -1 -16 -6 -28 -10 -28
-5 0 -6 -6 -2 -12 4 -7 -30 23 -75 67 -44 44 -81 75 -81 70 0 -5 35 -45 77
-87 43 -43 71 -78 64 -78 -11 0 -11 -3 -1 -15 9 -11 9 -15 1 -15 -7 0 -9 -6
-5 -12 4 -7 -28 21 -70 62 -42 41 -76 71 -76 66 0 -5 -7 -3 -15 4 -8 7 -13 16
-10 20 3 5 0 12 -6 16 -8 4 -9 3 -5 -4 13 -22 0 -12 -30 20 -28 32 -28 32 -1
9 17 -16 27 -20 27 -11 0 9 6 8 20 -5 11 -10 20 -14 20 -9 0 5 32 -23 70 -61
39 -38 70 -65 70 -60 0 6 -46 55 -102 110 -57 55 -88 84 -70 65 39 -43 43 -63
5 -29 -14 13 -22 17 -18 9 7 -13 6 -13 -7 -2 -13 11 -15 23 -9 66 0 6 17 -6
38 -25 20 -18 32 -27 28 -19 -4 8 22 -14 59 -50 36 -35 66 -58 66 -51 0 10 6
9 23 -5 l22 -19 -19 22 c-10 13 -22 21 -26 18 -3 -2 -33 23 -65 55 -36 36 -62
55 -66 49 -5 -8 -8 -8 -13 0 -4 6 -2 11 4 11 6 0 8 5 5 10 -4 6 -11 8 -16 4
-5 -3 -8 0 -7 8 2 7 -2 12 -8 11 -6 -1 -10 18 -9 50 0 31 -5 59 -13 69 -7 9
-15 22 -16 30 -1 7 -8 24 -15 37 -8 14 -9 21 -2 17 6 -4 11 -2 11 5 0 7 10 3
23 -9 13 -12 26 -20 29 -17z m-1323 -67 l26 -18 -36 0 c-23 0 -41 6 -50 18
-11 14 -11 15 1 5 8 -7 21 -13 29 -13 10 0 7 6 -9 17 -14 10 -27 16 -29 14 -7
-5 -21 24 -21 44 1 17 6 15 32 -15 17 -19 43 -43 57 -52z m1216 48 c19 -8 35
-18 35 -21 0 -3 -9 -1 -20 5 -21 11 -29 -3 -9 -15 7 -5 4 -14 -7 -26 -9 -11
-15 -22 -11 -25 9 -9 57 27 50 39 -4 6 -1 7 6 2 18 -10 -18 -46 -81 -80 -58
-32 -68 -26 -68 40 1 42 12 64 45 83 25 14 20 15 60 -2z m-1062 -34 c10 -18
17 -37 15 -44 -2 -6 -16 10 -31 36 -29 52 -14 59 16 8z m267 -26 c14 -16 29
-36 34 -44 17 -29 104 -327 126 -434 28 -134 71 -224 123 -257 60 -39 34 -36
-32 3 -97 59 -94 53 -191 446 -28 113 -64 233 -80 268 -30 64 -24 70 20 18z
m-1477 -37 c5 -17 11 -20 31 -15 18 4 26 2 26 -7 0 -19 -21 -37 -44 -37 -40 0
-76 60 -43 73 21 9 25 8 30 -14z m2337 -15 c0 -8 -4 -13 -9 -10 -5 3 -15 -1
-22 -10 -7 -8 -26 -21 -43 -29 l-31 -13 32 -1 c22 -1 37 6 48 22 10 12 15 16
13 8 -8 -28 -55 -54 -82 -47 -14 3 -26 10 -26 14 1 5 103 76 118 81 1 1 2 -6
2 -15z m-2340 -90 c0 -6 -11 -14 -25 -16 -23 -5 -25 -3 -25 35 l0 40 25 -23
c14 -13 25 -29 25 -36z m1294 -61 c30 -107 30 -103 12 -103 -9 0 -19 28 -30
83 -9 45 -19 93 -23 107 -4 17 -2 22 5 15 5 -5 22 -51 36 -102z m102 92 c9
-22 -15 -45 -46 -45 -38 0 -60 9 -60 25 0 10 10 12 35 8 28 -4 35 -2 35 11 0
20 29 21 36 1z m-1336 -26 c-12 -40 -20 -49 -20 -21 0 26 10 52 20 52 5 0 5
-14 0 -31z m1147 -11 c-3 -8 -6 -5 -6 6 -1 11 2 17 5 13 3 -3 4 -12 1 -19z
m-1296 -113 l-8 -110 -2 102 c0 56 2 109 6 119 12 31 13 2 4 -111z m1514 86
c3 -11 -1 -35 -9 -54 -9 -22 -12 -51 -9 -76 6 -43 -1 -50 -31 -28 -14 10 -17
23 -14 45 2 18 1 32 -4 32 -15 0 -8 24 15 48 l22 24 -41 -7 c-26 -4 -44 -2
-49 4 -4 7 9 11 39 11 25 0 48 5 51 10 10 16 23 12 30 -9z m-1399 -80 c-3 -25
-11 -100 -17 -166 -6 -66 -13 -122 -16 -125 -5 -5 4 144 16 263 5 45 4 67 -3
67 -6 0 -12 -15 -13 -33 -1 -17 -7 -72 -12 -122 -6 -49 -16 -152 -22 -227 -7
-76 -15 -138 -19 -138 -3 0 -15 6 -25 14 -18 13 -19 18 -7 60 6 25 21 130 32
233 26 244 23 231 61 225 31 -5 31 -5 25 -51z m2395 -37 c3 3 34 -25 70 -62
61 -64 61 -64 7 -12 -70 66 -77 56 -11 -15 27 -27 7 -10 -43 38 -49 48 -92 85
-95 82 -3 -3 -14 5 -25 17 -10 12 -13 18 -6 14 16 -9 16 6 0 25 -7 7 12 -10
43 -39 30 -29 57 -50 60 -48z m-783 -6 c17 -46 40 -107 51 -136 12 -29 17 -51
11 -47 -5 3 -10 1 -10 -5 0 -24 72 -165 103 -204 52 -64 56 -74 22 -52 -86 54
-115 110 -151 285 -13 64 -32 143 -44 175 -21 63 -22 66 -16 66 2 0 18 -37 34
-82z m713 19 c2 5 38 -28 79 -72 l74 -80 -75 73 c-41 40 -77 70 -80 67 -3 -3
-16 7 -30 23 l-24 27 26 -23 c15 -13 28 -20 30 -15z m10 -42 c3 2 27 -19 55
-48 28 -29 33 -37 12 -17 -42 37 -51 31 -15 -9 l22 -26 -28 25 c-15 13 -25 30
-23 37 5 13 -10 28 -16 16 -1 -5 -21 12 -43 37 -38 43 -38 44 -4 12 19 -18 38
-30 40 -27z m-45 3 l29 -33 -32 29 c-18 17 -33 31 -33 33 0 8 8 1 36 -29z
m-1010 -12 c100 -31 190 -143 196 -246 2 -34 -1 -45 -13 -48 -13 -2 -17 9 -22
51 -10 100 -53 158 -147 200 -125 56 -300 40 -520 -49 -291 -117 -504 -259
-637 -427 -92 -116 -94 -117 -160 -117 -57 0 -57 0 -33 17 14 10 41 18 59 18
32 0 40 7 92 76 62 82 152 169 263 254 100 75 326 185 498 240 78 26 148 48
153 51 23 9 224 -6 271 -20z m1056 -51 c2 3 12 -3 21 -13 15 -16 15 -18 -1
-18 -9 -1 -39 24 -67 55 l-49 56 45 -43 c25 -23 48 -40 51 -37z m-12 -32 c0
-8 -9 0 -50 45 l-45 47 48 -45 c26 -24 47 -45 47 -47z m-60 32 c19 -19 32 -35
29 -35 -3 0 -20 16 -39 35 -19 19 -32 35 -29 35 3 0 20 -16 39 -35z m-1055 4
c13 -13 8 -102 -10 -169 -11 -42 -25 -65 -58 -96 -50 -48 -105 -64 -218 -64
-71 0 -344 38 -453 63 l-59 13 29 21 c110 78 448 220 580 243 56 10 174 3 189
-11z m665 0 c0 -6 -4 -7 -10 -4 -5 3 -10 11 -10 16 0 6 5 7 10 4 6 -3 10 -11
10 -16z m371 -16 l24 -28 -24 20 c-23 19 -24 19 -17 1 6 -16 4 -17 -10 -5 -10
8 -12 15 -5 17 6 2 9 8 5 13 -11 18 3 8 27 -18z m-414 11 c-3 -3 -12 -4 -19
-1 -8 3 -5 6 6 6 11 1 17 -2 13 -5z m-527 -163 c0 -220 -15 -340 -33 -270 -4
16 -12 20 -39 17 l-33 -3 -33 -115 c-34 -119 -74 -292 -68 -297 2 -2 14 20 26
49 19 42 24 48 27 31 2 -12 -3 -36 -12 -53 -31 -61 -7 -41 34 27 56 94 52 69
-6 -35 -74 -131 -188 -221 -328 -258 -81 -22 -217 -18 -315 10 -270 75 -398
181 -457 379 -16 56 -12 74 7 25 28 -76 28 -76 35 -20 11 75 30 81 22 6 l-5
-59 15 50 c16 50 16 50 26 22 6 -20 6 -37 -2 -53 -6 -13 -7 -24 -2 -24 13 0
29 23 34 50 3 19 5 17 6 -11 1 -46 17 -65 66 -83 l40 -15 -46 0 c-86 -2 -72
-52 35 -125 106 -72 360 -122 421 -82 31 21 32 54 3 92 -21 26 -21 27 -3 20
66 -26 215 -57 258 -53 57 5 54 -2 -5 -13 -33 -7 -62 -3 -127 16 -105 30 -111
30 -78 -4 33 -34 28 -53 -17 -77 -28 -15 -49 -17 -142 -12 -60 3 -120 9 -134
12 l-25 6 25 -14 c109 -63 328 -59 461 8 58 30 129 83 129 97 0 5 -4 7 -9 4
-4 -3 0 11 10 32 11 21 21 65 24 99 6 85 -16 112 -117 141 -99 28 -643 162
-661 162 -22 0 -68 -40 -84 -74 -11 -25 -13 -26 -8 -6 3 14 12 59 21 100 21
107 20 105 73 144 l48 35 114 -29 c399 -101 681 -160 686 -145 2 6 12 25 23
43 16 26 26 32 54 32 30 0 34 3 40 34 4 18 7 101 7 184 1 84 6 149 10 146 5
-3 9 -67 9 -143z m-1582 108 l47 -8 -52 4 c-29 2 -55 0 -58 -6 -4 -5 6 -9 22
-10 28 -1 28 -1 3 -8 -14 -4 -26 -15 -28 -25 -3 -16 2 -18 36 -14 22 2 38 0
36 -4 -3 -5 -20 -8 -39 -8 -19 0 -37 -4 -40 -10 -4 -6 7 -10 24 -10 17 0 31
-4 31 -10 0 -5 -13 -10 -30 -10 -45 0 -39 -28 8 -35 65 -11 68 -14 12 -12 -45
2 -55 -1 -58 -15 -3 -15 4 -18 40 -20 l43 -1 -42 -4 c-40 -4 -43 -6 -43 -34 0
-24 4 -29 25 -29 14 0 25 -4 25 -10 0 -5 -11 -10 -25 -10 -14 0 -25 -5 -25
-11 0 -6 9 -9 20 -6 11 3 20 1 20 -3 0 -5 -9 -10 -20 -12 -34 -5 -23 -23 17
-29 l38 -6 -43 -2 c-39 -1 -43 -3 -40 -23 2 -19 11 -24 43 -27 l40 -5 -45 -5
c-51 -7 -53 -26 -2 -26 17 0 32 -3 32 -7 0 -5 -18 -8 -40 -8 -22 0 -40 -4 -40
-10 0 -5 14 -10 30 -10 17 0 30 -4 30 -10 0 -5 -13 -10 -29 -10 -16 0 -32 -6
-34 -12 -10 -26 -7 111 8 287 8 99 15 195 15 213 0 29 3 33 21 27 11 -4 42
-11 67 -16z m1678 -77 c8 -41 -10 -230 -22 -242 -5 -5 -8 19 -7 58 2 64 1 65
-7 23 -5 -24 -11 -45 -12 -47 -2 -1 -3 65 -3 147 l0 150 22 -28 c13 -15 26
-43 29 -61z m161 -81 c18 -71 60 -123 130 -160 21 -11 31 -20 22 -21 -25 0
-171 103 -180 129 -6 15 -5 20 2 15 7 -4 9 1 4 15 -3 11 -8 53 -9 93 -3 62 -2
67 6 33 5 -22 16 -69 25 -104z m930 125 c6 -5 -29 -139 -39 -153 -11 -14 -140
-54 -346 -108 -143 -38 -143 -38 -163 -18 -20 19 -19 19 28 22 55 2 161 29
169 43 4 6 -9 6 -31 2 l-37 -7 46 43 c26 24 44 45 41 48 -2 3 -11 -1 -20 -8
-23 -19 -17 1 13 45 48 70 82 85 186 86 65 0 85 3 71 10 -14 7 -6 8 29 4 27
-3 51 -7 53 -9z m-2734 -3 c-7 -2 -21 -2 -30 0 -10 3 -4 5 12 5 17 0 24 -2 18
-5z m365 -135 c24 -21 25 -22 18 -3 -5 15 1 12 26 -12 31 -30 34 -31 46 -15
11 15 11 14 3 -4 -6 -12 -8 -24 -5 -26 2 -3 -1 -17 -7 -32 -9 -20 -15 -23 -26
-15 -20 17 -16 34 5 18 14 -11 14 -10 -2 8 -10 13 -22 21 -26 18 -4 -2 -20 10
-36 28 -29 31 -29 32 -1 8 18 -16 27 -20 27 -11 0 8 13 2 33 -16 l32 -29 -29
32 c-16 18 -32 31 -34 28 -3 -3 -13 2 -23 11 -13 12 -22 13 -37 5 -11 -6 -22
-7 -26 -4 -3 3 -6 2 -6 -3 0 -6 20 -30 45 -54 54 -53 60 -42 8 15 -23 24 -16
20 16 -11 34 -33 51 -56 46 -64 -5 -8 -28 8 -70 50 -58 57 -63 61 -70 41 -3
-12 -10 -19 -14 -17 -13 8 -5 -34 9 -47 10 -9 11 -9 6 1 -13 22 -1 13 44 -35
l45 -48 -42 40 c-24 21 -43 33 -43 25 0 -9 -6 -8 -22 6 l-23 19 19 -22 c10
-13 22 -21 26 -18 4 2 22 -12 41 -33 l34 -37 -37 34 c-22 20 -38 29 -38 21 0
-9 -6 -8 -22 6 l-23 19 19 -22 c10 -13 22 -21 26 -18 4 2 20 -10 36 -28 l29
-32 -32 29 c-38 34 -44 25 -11 -13 13 -14 0 -6 -27 19 -27 25 -42 36 -32 24
21 -25 22 -41 2 -24 -28 23 -15 4 17 -26 18 -16 26 -20 18 -9 -14 20 -14 20 7
2 18 -16 20 -23 11 -43 l-11 -24 -24 22 c-13 12 -23 26 -23 31 0 6 11 0 25
-13 14 -13 25 -21 25 -19 0 3 -17 21 -37 40 -20 18 -31 26 -24 17 10 -14 11
-18 1 -18 -10 0 -10 -3 -1 -14 9 -10 9 -15 1 -18 -7 -2 -1 -12 12 -23 18 -16
20 -16 9 -2 -17 22 -9 33 9 12 19 -23 -3 -44 -25 -25 -41 34 -48 68 -34 164
18 119 42 149 123 155 11 0 31 -9 44 -21z m-28 -93 c30 -30 52 -55 49 -55 -2
0 -29 25 -59 55 -30 30 -52 55 -49 55 2 0 29 -25 59 -55z m1393 48 c-7 -2 -21
-2 -30 0 -10 3 -4 5 12 5 17 0 24 -2 18 -5z m-1403 -68 c30 -30 52 -55 49 -55
-2 0 -29 25 -59 55 -30 30 -52 55 -49 55 2 0 29 -25 59 -55z m-317 38 c-33
-13 2 -59 37 -48 22 7 27 40 8 48 -7 3 -1 6 13 6 22 1 28 -5 33 -29 4 -22 15
-35 38 -46 l33 -15 -35 7 c-19 4 -56 8 -81 8 -46 1 -79 18 -79 40 0 15 21 36
35 35 5 0 4 -3 -2 -6z m1692 -13 c13 -6 15 -9 5 -9 -8 0 -22 4 -30 9 -18 12
-2 12 25 0z m915 -25 c0 -39 -43 -146 -100 -248 -61 -110 -95 -153 -130 -162
-23 -6 -22 -5 5 13 17 10 45 46 63 79 17 33 38 66 46 72 24 20 96 196 96 235
0 20 5 36 10 36 6 0 10 -11 10 -25z m-903 -11 c-5 -5 -57 13 -57 20 0 3 14 0
31 -6 16 -6 28 -12 26 -14z m873 -7 c0 -16 -89 -200 -106 -218 -17 -19 -34
-16 -77 14 -35 24 -30 32 9 12 33 -17 64 -20 64 -6 0 5 -9 12 -19 16 -11 3
-25 13 -33 22 -12 15 -11 15 9 5 12 -7 29 -12 39 -12 16 0 16 1 1 18 -25 28
-21 34 18 26 29 -5 35 -3 35 10 0 10 -3 15 -7 13 -5 -3 -24 6 -43 20 -35 25
-27 26 30 5 12 -5 13 -3 3 10 -15 18 -7 28 23 28 13 0 26 5 29 10 3 6 0 10 -7
10 -8 0 -23 7 -34 16 -18 15 -18 15 9 9 21 -4 27 -2 27 11 0 13 3 14 15 4 8
-7 15 -17 15 -23z m-870 -19 c10 -6 3 -7 -20 -2 -19 3 -39 10 -45 16 -12 11
42 0 65 -14z m703 -15 c-9 -16 -18 -30 -20 -32 -2 -2 -3 3 -3 12 0 14 25 47
36 47 2 0 -3 -12 -13 -27z m-2385 2 c23 -7 23 -9 17 -83 -11 -137 -17 -177
-27 -189 -17 -21 -183 -63 -248 -63 -33 0 -41 4 -46 24 -14 59 -5 68 93 96
116 34 130 46 139 121 6 54 8 58 26 48 10 -6 27 -9 36 -7 13 3 10 8 -13 18
-34 17 -49 55 -18 47 10 -3 28 -8 41 -12z m82 -9 c52 -15 63 -43 15 -38 -29 2
-29 2 -11 -13 11 -8 27 -15 37 -15 9 0 19 -9 22 -21 5 -19 2 -21 -44 -17 -27
1 -49 0 -49 -3 0 -7 44 -26 75 -32 17 -3 16 -5 -8 -15 -16 -7 -42 -12 -58 -12
l-29 0 0 90 c0 50 1 90 3 90 1 0 22 -6 47 -14z m1600 -14 c3 -3 -8 -2 -25 2
-16 4 -34 12 -40 17 -5 5 6 4 25 -2 19 -7 37 -14 40 -17z m-115 -14 c-12 -39
-25 -44 -25 -10 0 22 5 32 16 32 11 0 14 -6 9 -22z m50 12 c3 -5 19 -10 36
-10 16 0 29 -4 29 -10 0 -5 -6 -10 -14 -10 -23 0 -76 22 -76 31 0 12 17 11 25
-1z m-1208 -35 c0 -8 -4 -15 -9 -15 -5 0 -6 -5 -2 -12 4 -7 3 -8 -4 -4 -9 5
-9 13 -2 27 13 23 17 24 17 4z m1219 -13 c-7 -7 -46 9 -46 18 0 5 11 4 25 -2
14 -6 23 -13 21 -16z m8 -23 c29 -6 29 -7 5 -8 -14 -1 -34 6 -45 15 -10 8 -13
12 -5 8 8 -4 28 -11 45 -15z m453 6 c2 -6 -15 -16 -37 -22 -34 -9 -38 -8 -29
3 19 23 -8 17 -31 -6 -11 -11 -20 -16 -20 -12 0 11 30 37 50 45 22 9 63 3 67
-8z m239 -27 c-14 -24 -33 -60 -42 -80 -21 -48 -38 -50 -18 -3 7 19 14 42 14
52 0 10 10 29 21 43 11 14 18 19 14 13 -3 -7 -2 -13 3 -13 6 0 12 7 16 15 3 8
8 15 11 15 4 0 -5 -19 -19 -42z m-848 14 c10 -7 8 -27 -9 -101 l-21 -92 -32 6
c-44 10 -53 22 -12 17 32 -4 33 -3 45 45 7 26 14 57 17 68 4 16 0 14 -16 -7
-22 -29 -60 -38 -60 -15 0 6 5 29 11 50 8 31 14 37 37 37 15 0 33 -4 40 -8z
m148 -23 c23 -8 25 -12 14 -19 -25 -16 -38 -11 -61 21 -22 31 -22 31 -1 20 11
-6 33 -16 48 -22z m-1255 4 c13 -16 12 -17 -3 -4 -10 7 -18 15 -18 17 0 8 8 3
21 -13z m1199 -19 c37 -33 43 -36 66 -25 25 11 26 11 20 -15 -4 -15 -20 -55
-35 -89 l-28 -62 -62 15 c-35 8 -61 20 -61 28 0 10 7 9 30 -2 16 -9 44 -14 62
-12 30 3 35 9 55 58 12 30 19 57 16 60 -3 3 -8 -1 -10 -7 -9 -25 -38 -51 -63
-57 -14 -3 -19 -3 -12 0 17 8 15 24 -3 24 -8 0 -18 15 -23 33 l-9 32 -11 -40
c-7 -22 -12 -46 -12 -54 0 -8 -3 -12 -6 -8 -8 8 28 157 38 157 4 0 26 -16 48
-36z m380 32 c0 -3 -4 -8 -10 -11 -5 -3 -10 -1 -10 4 0 6 5 11 10 11 6 0 10
-2 10 -4z m234 -9 c30 -22 11 -82 -43 -140 l-46 -50 -5 84 c-4 73 -3 86 14
102 22 20 55 22 80 4z m-1319 -83 c187 -47 353 -93 369 -102 41 -24 51 -69 32
-136 -9 -30 -23 -59 -32 -67 -12 -10 -11 -4 5 26 14 26 21 58 21 92 0 67 -10
73 -161 112 -157 40 -171 43 -166 34 3 -5 51 -22 106 -38 56 -17 101 -33 101
-37 0 -8 -95 -12 -180 -9 -25 1 -67 8 -95 16 -84 23 -247 56 -252 51 -3 -2 21
-12 52 -22 80 -26 56 -28 -49 -5 -107 24 -141 49 -132 99 2 17 3 32 0 32 -10
0 -37 -76 -45 -125 l-8 -50 3 61 c5 84 40 150 81 153 5 1 162 -37 350 -85z
m1055 69 c0 -10 -4 -14 -8 -8 -4 6 -11 13 -16 18 -5 4 -2 7 7 7 10 0 17 -8 17
-17z m320 -51 c-14 -51 -45 -92 -69 -92 -11 0 -8 8 11 28 30 32 58 87 59 116
0 12 3 15 6 8 3 -8 0 -35 -7 -60z m-1879 41 c13 -16 12 -17 -3 -4 -17 13 -22
21 -14 21 2 0 10 -8 17 -17z m-20 -10 c13 -16 12 -17 -3 -4 -10 7 -18 15 -18
17 0 8 8 3 21 -13z m1725 -64 c-7 -110 -16 -113 -16 -6 0 56 4 87 11 87 7 0 9
-26 5 -81z m-316 67 c0 -2 -9 -6 -20 -9 -11 -3 -20 -1 -20 4 0 5 9 9 20 9 11
0 20 -2 20 -4z m220 -22 c-50 -16 -194 -34 -255 -33 -22 1 14 7 81 14 67 8
136 18 155 23 53 16 69 12 19 -4z m39 -41 c-1 -22 -3 -24 -6 -7 -3 16 -9 20
-24 17 -10 -3 -20 -13 -20 -22 -1 -14 -2 -14 -6 1 -4 14 -9 15 -31 7 -15 -6
-28 -10 -29 -10 -29 8 -43 -2 -45 -31 l-1 -33 -4 32 c-4 32 -6 32 -41 27 -20
-3 -40 -11 -44 -18 -5 -7 -8 -8 -8 0 0 6 -13 11 -30 12 -26 1 -30 -3 -31 -26
-2 -26 -2 -26 -7 3 l-5 30 -7 -25 -8 -25 -1 26 c-1 26 0 26 97 33 53 4 129 13
167 21 39 7 73 13 78 14 4 0 6 -11 6 -26z m-1972 -25 c-3 -7 -5 -2 -5 12 0 14
2 19 5 13 2 -7 2 -19 0 -25z m58 12 c17 -7 17 -9 3 -9 -19 -1 -34 -42 -23 -60
3 -6 -1 -11 -11 -11 -13 0 -15 6 -10 31 3 17 6 38 6 45 0 16 6 16 35 4z m80
-86 c-10 -41 -21 -72 -26 -67 -4 4 -2 31 6 58 7 28 16 64 20 80 4 17 9 24 12
18 2 -7 -3 -47 -12 -89z m85 -4 c12 -41 33 -92 47 -113 13 -22 23 -41 20 -43
-2 -3 -27 -7 -56 -11 -44 -5 -51 -4 -51 12 0 10 -11 28 -24 40 l-24 22 19 83
c30 127 35 127 69 10z m1627 43 c-3 -10 -5 -4 -5 12 0 17 2 24 5 18 2 -7 2
-21 0 -30z m-90 -10 c-3 -10 -5 -4 -5 12 0 17 2 24 5 18 2 -7 2 -21 0 -30z
m190 5 c-3 -7 -5 -2 -5 12 0 14 2 19 5 13 2 -7 2 -19 0 -25z m303 -5 c-11 -17
-11 -17 -6 0 3 10 6 24 7 30 0 9 2 9 5 0 3 -7 0 -20 -6 -30z m-2632 -5 c-3 -7
-67 -29 -144 -49 -76 -20 -175 -45 -219 -57 -101 -27 -247 -46 -292 -39 -31 5
-33 4 -22 -10 11 -13 28 -15 96 -9 45 3 114 13 153 21 39 8 79 15 88 14 36 -2
-158 -39 -238 -45 -79 -6 -86 -5 -105 15 -15 17 -17 26 -8 39 10 17 20 18 74
9 40 -7 234 28 429 77 206 52 193 49 188 34z m-584 -27 c14 -13 24 -32 23 -42
-2 -23 -1 -23 -18 -2 -12 14 -12 16 0 8 10 -5 12 -4 7 4 -4 6 -11 9 -15 6 -5
-2 -16 4 -26 15 -10 11 -23 20 -29 20 -5 0 6 -17 24 -37 28 -30 25 -28 -13 7
-26 24 -47 38 -47 31 0 -7 -5 -9 -12 -5 -7 4 -8 3 -4 -5 4 -6 11 -9 16 -6 5 3
12 0 16 -6 4 -8 3 -9 -4 -5 -7 4 -12 2 -12 -3 0 -6 5 -11 10 -11 6 0 10 -5 10
-12 0 -9 -3 -9 -12 0 -8 8 -17 8 -32 0 -12 -6 -18 -7 -13 -3 4 5 0 16 -9 26
-15 17 -19 17 -45 3 -32 -16 -35 -23 -16 -44 6 -8 3 -7 -9 3 -20 17 -21 16
-33 -9 -11 -25 -9 -30 26 -68 l38 -41 -42 40 c-49 45 -54 71 -20 110 49 57
191 73 241 26z m585 -16 c-9 -8 -310 -87 -315 -82 -3 2 49 19 115 36 66 17
137 38 158 45 35 12 53 13 42 1z m-737 -13 c-7 -2 -9 -9 -5 -15 4 -7 -1 -6
-10 2 -18 15 -23 26 -7 16 6 -3 10 -1 10 5 0 6 5 8 12 4 9 -6 9 -9 0 -12z
m3138 8 c0 -5 -7 -10 -16 -10 -8 0 -12 5 -9 10 3 6 10 10 16 10 5 0 9 -4 9
-10z m-1987 -13 c39 -42 47 -58 15 -29 -27 26 -41 32 -58 27 -21 -7 -21 -8 16
-47 22 -22 53 -49 69 -60 18 -13 7 4 -30 43 -44 47 -48 53 -15 23 25 -23 62
-53 82 -69 37 -26 42 -45 13 -45 -15 0 -116 87 -148 127 -10 13 -15 27 -12 33
9 14 54 12 68 -3z m1403 -102 c5 -21 8 -25 11 -12 4 17 23 15 23 -3 0 -10 -59
-44 -65 -38 -2 2 -6 21 -9 43 -6 39 -5 39 4 8 6 -18 15 -33 20 -33 10 0 6 35
-11 100 -5 19 -8 40 -8 45 1 10 19 -47 35 -110z m494 106 c-8 -5 -26 -11 -40
-15 -21 -5 -20 -3 5 9 32 15 60 20 35 6z m-3075 -21 c10 -11 16 -20 13 -20 -3
0 -13 9 -23 20 -10 11 -16 20 -13 20 3 0 13 -9 23 -20z m2724 -60 c0 -25 -3
-50 -7 -56 -11 -18 -267 -98 -287 -91 -28 11 1 38 34 32 14 -3 20 -2 14 1 -7
3 -13 18 -12 32 0 23 2 24 8 8 4 -11 16 -22 26 -26 31 -11 96 6 121 32 23 23
24 27 13 77 -15 72 -6 75 12 4 12 -52 14 -55 17 -25 2 18 8 30 13 27 5 -4 9 7
9 24 0 32 21 47 32 22 4 -9 7 -36 7 -61z m-2754 30 c10 -11 16 -20 13 -20 -3
0 -13 9 -23 20 -10 11 -16 20 -13 20 3 0 13 -9 23 -20z m1115 10 c0 -5 -4 -10
-10 -10 -5 0 -10 5 -10 10 0 6 5 10 10 10 6 0 10 -4 10 -10z m1837 -6 c-3 -3
-12 -4 -19 -1 -8 3 -5 6 6 6 11 1 17 -2 13 -5z m-2957 -29 c13 -14 21 -25 18
-25 -2 0 -15 11 -28 25 -13 14 -21 25 -18 25 2 0 15 -11 28 -25z m2627 -7 c-3
-7 -5 -2 -5 12 0 14 2 19 5 13 2 -7 2 -19 0 -25z m286 25 c-7 -2 -19 -2 -25 0
-7 3 -2 5 12 5 14 0 19 -2 13 -5z m-1671 -175 c-2 -4 -17 8 -34 27 -29 33 -58
49 -42 23 5 -7 -15 7 -43 31 -56 47 -71 70 -51 82 8 5 40 -20 93 -74 44 -45
79 -85 77 -89z m1608 162 c-14 -4 -34 -8 -45 -8 -16 0 -15 2 5 8 14 4 34 8 45
8 16 0 15 -2 -5 -8z m-1800 -17 c0 -10 23 -48 50 -86 50 -68 104 -111 124
-100 6 3 5 0 -1 -7 -11 -12 -18 -10 -43 8 -43 32 -63 28 -96 -20 -64 -91 -86
-137 -79 -168 4 -17 11 -30 15 -30 5 0 7 8 3 18 -4 12 1 10 18 -8 l25 -25 -28
-18 c-34 -23 -42 -18 -130 78 -95 105 -92 99 -73 134 17 35 19 35 46 20 28
-15 53 -3 80 36 13 19 41 43 61 55 44 25 45 31 17 76 -19 32 -19 54 2 54 5 0
9 -8 9 -17z m744 -19 c100 -22 209 -54 224 -66 15 -13 16 -44 1 -54 -8 -4 -9
0 -4 15 7 23 -4 28 -23 9 -9 -9 -12 -7 -12 10 0 29 -25 38 -173 64 -109 19
-120 19 -136 4 -16 -15 -19 -15 -31 -1 -10 12 -15 13 -21 4 -10 -16 -39 6 -39
29 0 12 11 14 71 8 40 -3 104 -13 143 -22z m-1784 -39 c30 -30 52 -55 49 -55
-2 0 -29 25 -59 55 -30 30 -52 55 -49 55 2 0 29 -25 59 -55z m1225 -13 c20
-18 35 -35 33 -38 -3 -2 -29 19 -59 47 -57 54 -38 47 26 -9z m-199 -9 c-8 -8
-12 -3 -21 27 l-7 25 17 -23 c9 -13 14 -26 11 -29z m1521 15 c-3 -7 -5 -2 -5
12 0 14 2 19 5 13 2 -7 2 -19 0 -25z m-726 -2 c84 -14 146 -35 123 -43 -7 -2
-48 5 -92 17 -44 11 -94 20 -110 20 -37 0 -62 9 -62 22 0 5 12 7 28 4 15 -4
66 -13 113 -20z m-344 -38 c1 -43 1 -43 -8 -10 -5 17 -14 32 -19 32 -5 0 -7
-15 -5 -32 l5 -33 -12 33 c-13 39 -44 41 -41 2 2 -24 2 -24 -8 3 -15 39 -29
33 -23 -10 l4 -38 -14 35 c-21 50 -21 49 37 53 28 2 59 4 67 5 12 2 16 -8 17
-40z m31 -9 c-3 -8 -7 -3 -11 10 -4 17 -3 21 5 13 5 -5 8 -16 6 -23z m-1398 1
c0 -5 -2 -10 -4 -10 -3 0 -8 5 -11 10 -3 6 -1 10 4 10 6 0 11 -4 11 -10z
m1207 -22 c-3 -7 -5 -2 -5 12 0 14 2 19 5 13 2 -7 2 -19 0 -25z m-368 5 c-34
-45 -54 -63 -71 -63 -27 0 -22 14 17 49 40 35 77 44 54 14z m350 -20 c0 -25
-1 -26 -9 -8 -12 27 -12 35 0 35 6 0 10 -12 9 -27z m158 -25 c-3 -8 -6 -5 -6
6 -1 11 2 17 5 13 3 -3 4 -12 1 -19z m-80 -10 c-3 -8 -6 -5 -6 6 -1 11 2 17 5
13 3 -3 4 -12 1 -19z m-224 -18 c11 -13 13 -20 4 -20 -14 1 -47 24 -47 34 0
13 26 5 43 -14z m1177 -15 c0 -6 -76 -45 -87 -45 -4 1 12 12 37 25 50 27 50
27 50 20z m-1213 -11 c-3 -3 -12 -4 -19 -1 -8 3 -5 6 6 6 11 1 17 -2 13 -5z
m578 -5 c-16 -5 -118 -27 -225 -49 -107 -22 -210 -45 -228 -51 -18 -6 -35 -9
-38 -6 -7 7 93 33 296 77 168 36 266 51 195 29z m-917 -31 c-3 -7 -29 -16 -58
-21 -66 -9 -77 -17 -24 -17 41 0 64 -14 64 -37 0 -15 -123 -79 -160 -84 -14
-2 -31 0 -37 4 -7 5 -13 4 -13 -2 0 -14 35 -32 52 -27 35 11 119 16 114 7 -4
-7 12 -9 46 -6 l53 4 -45 -9 c-25 -6 -88 -11 -140 -13 l-95 -2 3 35 c3 40 27
128 42 150 6 11 35 17 97 21 48 3 92 6 96 7 5 1 7 -4 5 -10z m332 -10 c0 -18
-2 -20 -10 -8 -7 12 -10 11 -15 -5 -11 -36 -38 -85 -47 -85 -4 0 -8 12 -8 26
0 18 12 38 37 60 20 19 38 34 40 34 2 0 3 -10 3 -22z m60 15 c0 -5 -10 -19
-21 -33 l-21 -25 18 33 c18 32 24 38 24 25z m-259 -150 c33 -35 67 -63 75 -63
9 0 14 -6 12 -12 -3 -7 -10 -13 -16 -13 -16 0 -151 134 -168 167 -21 41 -16
46 12 13 15 -16 53 -58 85 -92z m266 65 c-3 -8 -6 -5 -6 6 -1 11 2 17 5 13 3
-3 4 -12 1 -19z m-27 -8 c0 -5 -5 -10 -11 -10 -5 0 -7 5 -4 10 3 6 8 10 11 10
2 0 4 -4 4 -10z m-25 -72 l-6 -43 25 45 c36 64 32 37 -15 -111 -44 -139 -60
-170 -28 -54 25 89 20 117 -7 45 -22 -58 -35 -66 -46 -28 -16 57 -9 97 22 124
16 15 32 35 35 45 12 36 25 19 20 -23z m-330 -58 c-3 -5 -23 -9 -43 -9 l-37 2
40 7 c22 4 41 8 43 9 2 0 0 -3 -3 -9z m73 -2 c5 -7 15 -31 21 -53 6 -22 18
-51 26 -65 9 -14 0 -7 -20 15 l-37 40 17 -40 c24 -54 27 -77 16 -95 -9 -13
-12 -12 -26 5 -16 20 -16 19 -11 -5 3 -14 6 -28 6 -32 0 -14 95 -9 115 5 26
20 17 100 -18 151 -15 21 -27 46 -27 55 1 12 3 12 12 -4 6 -11 19 -29 29 -41
10 -11 23 -45 29 -75 6 -29 13 -61 15 -70 11 -32 -142 -69 -160 -39 -8 12 -34
192 -35 233 0 20 5 27 19 27 10 0 23 -6 29 -12z m-233 -11 l80 1 -79 -9 c-82
-10 -106 -7 -106 11 0 6 5 8 12 4 7 -5 49 -7 93 -7z m409 -178 c5 -17 4 -20
-2 -9 -6 8 -15 40 -21 71 -7 33 -21 65 -32 75 l-21 19 24 5 c22 6 24 2 34 -65
7 -40 15 -83 18 -96z"/>
<path d="M2659 4527 c25 -26 47 -44 50 -41 3 2 38 -28 78 -68 40 -40 73 -68
73 -63 0 5 16 -6 35 -25 20 -20 35 -28 35 -20 0 8 18 -3 43 -25 l42 -40 -39
42 c-22 24 -42 40 -45 37 -6 -6 -191 177 -191 191 0 5 36 -26 80 -70 44 -44
80 -75 80 -70 0 5 23 -13 52 -40 29 -28 11 -5 -39 50 -50 55 -113 120 -140
145 l-48 45 48 -50 c57 -61 63 -85 7 -30 -22 21 -40 35 -40 30 0 -5 -13 4 -30
20 -16 16 -30 25 -30 20 0 -5 39 -49 87 -97 48 -48 84 -90 81 -93 -3 -3 -49
40 -102 97 -53 56 -96 96 -96 89 0 -11 -3 -11 -17 0 -10 7 2 -8 26 -34z m27
-9 l29 -33 -32 29 c-31 28 -38 36 -30 36 2 0 16 -15 33 -32z m179 -98 c21 -22
37 -40 34 -40 -3 0 -23 18 -44 40 -21 22 -37 40 -34 40 3 0 23 -18 44 -40z"/>
<path d="M2490 4551 c0 -4 11 -18 25 -31 17 -16 25 -19 25 -10 0 8 29 -15 65
-50 36 -35 65 -60 65 -55 0 5 45 -35 100 -90 55 -55 100 -104 100 -110 0 -5
-34 24 -75 65 -41 41 -75 70 -75 66 0 -5 -11 1 -25 14 -17 16 -25 19 -25 10 0
-8 -29 15 -65 50 -36 35 -65 69 -65 74 0 6 29 -19 65 -54 36 -35 65 -60 65
-55 0 4 11 -2 25 -15 14 -13 25 -19 25 -13 0 5 -11 20 -25 33 -17 16 -25 19
-25 10 0 -8 -29 15 -65 50 -36 35 -65 60 -65 55 0 -5 -15 5 -32 22 -30 27 -75
43 -62 21 4 -5 9 -7 12 -3 3 3 52 -41 109 -97 57 -56 103 -99 103 -94 0 5 11
-1 25 -14 17 -16 25 -19 25 -9 0 7 34 -20 75 -61 41 -41 75 -70 75 -65 0 5 50
-40 110 -100 61 -60 110 -114 110 -120 0 -5 -34 24 -75 65 -41 41 -75 70 -75
65 0 -5 -16 6 -35 25 -21 20 -35 28 -35 20 0 -8 -27 12 -60 45 -33 33 -60 64
-60 69 0 6 27 -16 60 -49 33 -33 60 -55 60 -50 0 5 16 -6 35 -25 19 -19 35
-29 35 -24 0 6 -16 25 -35 44 -21 20 -35 28 -35 20 0 -8 -32 17 -71 55 -40 39
-68 63 -64 55 4 -8 -8 1 -28 19 -23 21 -37 29 -37 21 0 -8 -34 19 -76 60 -42
41 -73 68 -69 60 5 -8 -4 -4 -18 9 -18 16 -27 20 -27 11 0 -8 -21 6 -47 30
l-48 45 44 -47 c25 -26 47 -45 50 -43 2 3 15 -5 28 -17 16 -15 23 -17 23 -8 0
8 29 -15 65 -50 36 -35 65 -69 65 -74 0 -6 -30 19 -66 54 -37 36 -63 58 -59
50 5 -8 -6 -2 -23 14 -20 19 -32 25 -32 16 0 -8 -26 10 -57 40 l-58 55 54 -57
c30 -31 57 -55 61 -53 4 2 24 -13 44 -34 26 -27 34 -40 24 -44 -7 -3 -50 32
-100 81 -48 47 -95 87 -104 88 -10 2 -30 -4 -44 -11 -15 -8 -31 -11 -36 -7 -5
4 -2 -1 5 -11 8 -9 16 -15 19 -12 3 3 16 -5 29 -17 30 -28 30 -12 1 21 l-23
26 23 -19 c23 -20 31 -10 10 14 -7 8 -3 6 10 -5 13 -10 18 -21 12 -25 -5 -3
27 -42 72 -85 44 -44 77 -73 73 -65 -5 8 6 2 23 -14 20 -19 32 -25 32 -16 0 8
29 -15 65 -50 36 -35 65 -69 65 -74 0 -6 -30 19 -66 54 -37 36 -63 58 -59 50
5 -8 -6 -2 -23 14 -18 17 -32 25 -32 20 0 -6 14 -23 30 -39 19 -18 30 -23 30
-15 0 8 27 -12 60 -45 33 -33 60 -55 60 -50 0 5 18 -8 40 -30 25 -24 36 -41
29 -46 -8 -5 -8 -8 0 -13 6 -4 11 -1 11 6 0 7 34 -21 76 -62 42 -41 73 -68 69
-60 -5 8 4 4 18 -9 18 -17 27 -20 27 -10 0 7 34 -20 75 -61 41 -41 75 -70 75
-65 0 5 16 -6 35 -25 21 -20 35 -28 35 -20 0 8 24 -8 53 -35 48 -46 47 -45 -8
13 -59 62 -72 73 -59 50 4 -7 -7 0 -24 16 -20 19 -32 25 -32 16 0 -8 -34 19
-75 60 -41 41 -75 70 -75 66 0 -5 -11 1 -25 14 -17 16 -25 19 -25 10 0 -8 -29
15 -65 50 -36 35 -65 69 -65 74 0 6 30 -19 66 -54 37 -36 63 -58 59 -50 -5 8
6 2 23 -14 20 -19 32 -25 32 -16 0 8 34 -19 76 -60 42 -41 73 -68 69 -60 -5 8
6 2 23 -14 20 -19 32 -25 32 -16 0 8 28 -12 63 -45 l62 -60 -65 68 c-64 67
-78 78 -64 55 4 -7 -7 0 -24 16 -20 19 -32 25 -32 16 0 -8 -25 10 -55 40 -30
30 -55 59 -55 64 0 6 25 -14 56 -44 31 -30 53 -48 49 -40 -5 8 6 2 23 -14 20
-19 32 -25 32 -16 0 8 30 -15 68 -50 l67 -65 -64 67 c-36 37 -67 65 -70 63 -2
-3 -17 7 -33 22 -18 17 -28 22 -28 13 0 -8 -25 10 -55 40 -30 30 -55 59 -55
64 0 6 25 -14 55 -44 30 -30 55 -50 55 -45 0 5 14 -4 30 -20 17 -16 30 -24 30
-19 0 5 -45 54 -100 109 -55 55 -100 95 -100 90 0 -5 -13 4 -29 19 -18 18 -30
23 -33 15 -2 -6 -46 34 -98 89 -53 57 -97 96 -101 90 -4 -7 -9 -7 -13 1 -4 6
-2 11 4 11 6 0 8 6 4 13 -4 6 42 -35 101 -93 59 -58 104 -98 100 -90 -4 8 8
-1 28 -19 23 -21 37 -29 37 -21 0 8 33 -18 73 -58 40 -40 75 -70 78 -67 3 3
16 -7 30 -23 l24 -27 -27 24 c-16 14 -28 20 -28 15 0 -5 42 -50 92 -99 51 -50
69 -65 40 -35 -67 72 -68 89 0 25 37 -36 32 -28 -17 25 -175 188 -657 690
-663 690 -3 0 15 -22 41 -48 26 -26 47 -52 47 -57 0 -5 -25 15 -55 45 -49 49
-85 70 -85 51z m41 -18 c13 -16 12 -17 -3 -4 -17 13 -22 21 -14 21 2 0 10 -8
17 -17z m9 -203 c0 8 34 -19 75 -60 41 -41 75 -70 75 -65 0 5 14 -4 30 -20 19
-18 30 -24 30 -15 0 8 29 -15 65 -50 36 -35 65 -69 65 -74 0 -6 -29 19 -65 54
-36 35 -65 60 -65 55 0 -5 -13 4 -30 20 -16 16 -30 24 -30 19 0 -6 14 -23 30
-39 19 -18 30 -24 30 -15 0 8 29 -15 65 -50 36 -35 65 -60 65 -55 0 5 16 -6
35 -25 19 -19 35 -30 35 -24 0 5 -45 54 -100 109 -55 55 -100 95 -100 90 0 -5
-13 4 -30 20 -19 18 -30 24 -30 15 0 -8 -29 15 -65 50 -36 35 -64 69 -63 75 1
5 -4 21 -11 35 -7 14 19 -6 58 -45 39 -38 71 -65 71 -60 0 5 45 -35 100 -90
55 -55 100 -95 100 -90 0 5 14 -4 30 -20 19 -18 30 -24 30 -15 0 8 32 -17 70
-55 39 -38 70 -74 70 -79 0 -6 -25 14 -55 44 -30 30 -55 50 -55 45 0 -5 -18 9
-40 30 -57 55 -50 31 7 -27 40 -40 44 -48 25 -45 -12 2 -36 16 -54 33 -25 23
-30 25 -24 9 4 -11 -20 7 -53 40 -34 33 -61 55 -61 50 0 -5 -49 40 -110 100
-60 60 -110 106 -110 100 0 -5 -13 4 -29 19 -16 15 -30 23 -32 17 -6 -16 -119
101 -124 127 -2 12 -7 28 -10 35 -4 6 37 -33 89 -88 53 -55 96 -93 96 -85z
m130 88 c0 -12 -6 -9 -26 13 -19 22 -19 22 4 8 12 -8 22 -17 22 -21z m491
-515 c13 -16 12 -17 -3 -4 -17 13 -22 21 -14 21 2 0 10 -8 17 -17z"/>
<path d="M2425 4410 c33 -33 62 -60 64 -60 3 0 -21 27 -54 60 -33 33 -62 60
-64 60 -3 0 21 -27 54 -60z"/>
<path d="M2624 4293 c33 -34 62 -60 65 -58 2 3 18 -7 35 -22 l29 -28 -21 31
c-29 42 -52 61 -52 43 0 -7 -26 11 -57 41 l-58 55 59 -62z"/>
<path d="M2940 4046 c0 -2 8 -10 18 -17 15 -13 16 -12 3 4 -13 16 -21 21 -21
13z"/>
<path d="M2790 4535 c13 -14 26 -25 28 -25 3 0 -5 11 -18 25 -13 14 -26 25
-28 25 -3 0 5 -11 18 -25z"/>
<path d="M2830 4557 c0 -2 15 -16 33 -33 l32 -29 -29 33 c-28 30 -36 37 -36
29z"/>
<path d="M2850 4508 c41 -45 50 -53 50 -45 0 2 -21 23 -47 47 l-48 45 45 -47z"/>
<path d="M2935 4500 c27 -27 51 -50 53 -50 2 0 -16 23 -39 50 -23 28 -47 50
-53 50 -5 0 12 -22 39 -50z"/>
<path d="M2444 4512 c16 -17 32 -30 34 -27 3 3 14 -2 24 -12 31 -28 20 1 -12
32 -17 17 -30 23 -30 15 0 -9 -6 -8 -22 6 -13 10 -10 4 6 -14z"/>
<path d="M2660 4498 c41 -45 50 -53 50 -45 0 2 -21 23 -47 47 l-48 45 45 -47z"/>
<path d="M2630 4496 c0 -2 8 -10 18 -17 15 -13 16 -12 3 4 -13 16 -21 21 -21
13z"/>
<path d="M2945 4460 c21 -22 41 -40 44 -40 3 0 -13 18 -34 40 -21 22 -41 40
-44 40 -3 0 13 -18 34 -40z"/>
<path d="M2274 4453 c10 -13 22 -20 26 -18 4 2 15 -4 25 -15 11 -12 21 -16 25
-10 3 5 86 -74 184 -176 98 -101 181 -182 184 -179 3 3 14 -2 24 -12 14 -12
18 -13 18 -2 0 7 34 -20 75 -61 41 -41 75 -70 75 -66 0 5 11 -1 25 -14 14 -13
25 -18 25 -11 0 7 5 9 11 5 8 -5 8 -9 -1 -14 -9 -5 -9 -9 -1 -14 6 -4 11 -1
11 6 0 7 23 -10 50 -37 28 -27 50 -54 50 -59 0 -6 -22 12 -50 39 -27 27 -50
45 -50 40 0 -5 -16 6 -35 25 -19 19 -35 30 -35 24 0 -5 48 -57 106 -114 59
-58 103 -98 99 -90 -5 8 6 2 23 -14 20 -19 32 -25 32 -16 0 8 26 -10 58 -40
l57 -55 -60 63 c-59 62 -72 73 -59 50 4 -7 -7 0 -24 16 -20 19 -32 25 -32 16
0 -8 -29 15 -65 50 -36 35 -65 69 -65 74 0 6 28 -16 61 -49 34 -33 58 -53 54
-45 -4 8 8 -1 28 -19 21 -19 37 -31 37 -25 0 5 -47 56 -105 114 -58 58 -105
101 -105 96 0 -5 -9 -1 -20 9 -15 14 -20 15 -20 4 0 -7 -34 20 -75 61 -41 41
-75 71 -75 66 0 -5 -6 -3 -14 4 -8 6 -13 17 -10 24 2 6 -9 25 -26 41 -19 18
-30 23 -30 15 0 -8 -27 12 -60 45 -33 33 -60 55 -60 50 0 -5 -49 40 -110 100
-60 60 -110 106 -110 101 0 -5 -11 1 -25 14 -15 14 -25 18 -25 11 0 -11 -3
-11 -17 0 -15 11 -15 10 1 -8z m407 -328 c3 3 16 -7 30 -22 22 -25 22 -26 2
-9 -27 23 -30 11 -6 -18 10 -12 -6 2 -36 29 -29 28 -67 68 -84 90 -25 33 -20
30 29 -18 33 -32 62 -55 65 -52z"/>
<path d="M2890 4435 c19 -19 36 -35 39 -35 3 0 -10 16 -29 35 -19 19 -36 35
-39 35 -3 0 10 -16 29 -35z"/>
<path d="M2269 4428 c14 -16 27 -26 30 -23 2 3 17 -7 33 -22 18 -17 28 -22 28
-13 0 8 25 -10 55 -40 30 -30 55 -59 55 -64 0 -6 -26 14 -57 44 -31 30 -51 46
-43 35 8 -11 -5 -2 -28 20 -23 21 -42 35 -42 29 0 -5 46 -54 101 -109 56 -55
98 -93 94 -85 -5 8 6 2 23 -14 20 -19 32 -25 32 -16 0 8 34 -19 75 -60 41 -41
75 -79 75 -84 0 -6 -34 23 -76 64 -42 41 -73 68 -69 60 6 -10 1 -8 -13 4 -14
12 -22 14 -22 7 0 -7 -5 -9 -11 -5 -8 5 -8 9 1 14 9 5 9 9 1 14 -6 4 -11 1
-11 -6 -1 -7 -58 46 -127 117 -69 72 -119 121 -109 109 21 -27 21 -40 -1 -23
-10 7 -7 1 6 -14 26 -29 37 -35 25 -14 -4 6 46 -40 110 -103 64 -63 116 -111
116 -106 0 5 11 -1 25 -14 17 -16 25 -19 25 -10 0 8 27 -12 60 -45 33 -33 60
-64 60 -69 0 -6 -25 14 -56 44 -31 30 -53 48 -49 40 4 -8 -8 1 -28 19 -21 19
-37 31 -37 25 0 -5 47 -56 105 -114 58 -58 105 -101 105 -96 0 5 9 1 19 -8 12
-11 20 -13 23 -6 2 6 82 -70 177 -170 95 -99 176 -178 179 -175 3 3 16 -5 29
-17 22 -21 24 -21 17 -3 -5 14 7 7 37 -20 l44 -40 -39 42 c-22 24 -42 40 -45
38 -2 -3 -17 7 -33 22 -18 17 -28 22 -28 13 0 -8 -22 8 -50 35 -27 27 -50 54
-50 59 0 6 23 -12 51 -39 29 -28 48 -43 44 -35 -4 8 8 -1 28 -19 48 -46 48
-28 0 24 -21 22 0 4 47 -40 46 -44 72 -66 57 -49 -37 42 -34 54 6 18 17 -16
12 -7 -13 19 -45 48 -56 56 -45 35 4 -7 -91 86 -209 207 -118 121 -215 216
-216 211 0 -5 -9 -1 -20 9 -29 26 -24 3 5 -25 17 -16 25 -19 25 -10 0 8 25
-10 55 -40 30 -30 55 -59 55 -64 0 -6 -24 13 -53 42 -29 29 -56 50 -59 47 -3
-3 -97 89 -208 205 -112 116 -205 208 -208 205 -3 -3 -16 5 -29 17 -15 14 -23
17 -23 8 0 -9 -10 -5 -27 11 l-28 24 24 -27z m202 -173 c3 2 23 -14 45 -38 29
-31 30 -34 7 -13 -21 19 -33 25 -33 16 0 -16 -86 64 -102 95 -6 11 10 1 34
-23 24 -23 46 -40 49 -37z m219 -260 c0 5 14 -4 30 -20 38 -36 39 -22 3 19
-24 27 -23 26 10 -3 22 -21 37 -29 37 -21 0 8 24 -9 53 -38 29 -29 55 -50 58
-48 3 3 52 -42 110 -100 75 -75 104 -111 104 -129 1 -24 -1 -23 -42 17 -24 23
-43 38 -43 33 0 -5 -54 44 -120 110 -66 66 -120 116 -120 110 0 -5 -13 4 -30
20 -29 28 -43 24 -18 -5 7 -8 -16 12 -50 45 -35 33 -68 69 -74 80 -6 11 13 -2
41 -30 28 -27 51 -45 51 -40z m515 -405 c3 -5 1 -10 -4 -10 -6 0 -11 5 -11 10
0 6 2 10 4 10 3 0 8 -4 11 -10z"/>
<path d="M2761 3951 c-9 -6 -10 -11 -2 -15 6 -4 11 -1 12 6 0 7 55 -43 121
-112 67 -69 112 -113 100 -99 -44 51 -20 42 40 -16 34 -33 15 -9 -42 53 -57
61 -106 112 -108 112 -3 0 3 -9 13 -20 10 -11 16 -22 13 -25 -3 -3 -33 24 -67
60 -35 36 -63 65 -64 65 -1 0 -8 -4 -16 -9z m185 -153 l29 -33 -32 29 c-31 28
-38 36 -30 36 2 0 16 -15 33 -32z"/>
<path d="M2789 4388 c35 -37 69 -66 75 -65 6 1 10 -4 9 -10 -2 -7 3 -12 10
-10 6 1 11 -4 10 -10 -2 -7 0 -12 5 -12 19 3 22 -3 11 -22 -6 -12 -7 -19 -2
-16 6 4 65 -49 132 -117 94 -95 120 -128 115 -142 -4 -15 -4 -16 4 -5 6 8 8
21 5 30 -3 9 20 -9 53 -39 32 -30 -5 13 -83 95 -77 83 -150 159 -162 169 -11
11 -21 24 -21 29 0 6 15 -2 33 -19 23 -21 22 -18 -7 13 -22 24 -42 40 -45 38
-2 -3 -20 9 -38 27 -20 19 -33 26 -33 18 0 -8 -30 15 -67 50 l-68 65 64 -67z
m304 -293 c66 -75 63 -73 -42 30 -62 61 -117 119 -123 130 -14 27 78 -62 165
-160z"/>
<path d="M2965 4410 c10 -11 20 -20 23 -20 3 0 -3 9 -13 20 -10 11 -20 20 -23
20 -3 0 3 -9 13 -20z"/>
<path d="M2488 4405 c5 -11 20 -29 33 -40 22 -20 22 -20 11 0 -5 11 -20 29
-33 40 -22 20 -22 20 -11 0z"/>
<path d="M2825 4320 c33 -33 62 -60 64 -60 3 0 -21 27 -54 60 -33 33 -62 60
-64 60 -3 0 21 -27 54 -60z"/>
<path d="M2279 4328 c19 -21 37 -35 41 -33 4 3 14 -3 21 -13 13 -15 12 -16 -3
-3 -15 11 -18 11 -18 0 0 -7 -14 0 -32 17 l-33 29 29 -32 c16 -18 32 -31 35
-28 2 3 17 -7 33 -22 18 -17 28 -22 28 -13 0 8 23 -8 50 -35 28 -27 50 -54 50
-59 0 -6 -23 12 -51 39 -29 28 -48 43 -44 35 4 -8 -8 1 -28 19 -21 19 -37 31
-37 25 0 -5 46 -54 101 -109 56 -55 98 -93 94 -85 -5 8 6 2 23 -14 20 -19 32
-25 32 -16 0 8 35 -19 77 -60 l78 -75 -80 85 c-219 233 -345 360 -345 349 0
-7 -12 -2 -27 12 -19 16 -17 12 6 -13z m92 -75 c13 -16 12 -17 -3 -4 -10 7
-18 15 -18 17 0 8 8 3 21 -13z m110 -128 c3 2 25 -17 50 -43 24 -26 29 -34 12
-18 -21 19 -33 25 -33 16 0 -16 -96 74 -112 105 -6 11 10 1 34 -23 24 -23 46
-40 49 -37z"/>
<path d="M2480 4116 c0 -2 8 -10 18 -17 15 -13 16 -12 3 4 -13 16 -21 21 -21
13z"/>
<path d="M2865 4250 c27 -27 51 -50 54 -50 3 0 -17 23 -44 50 -27 28 -51 50
-54 50 -3 0 17 -22 44 -50z"/>
<path d="M2273 4274 c22 -27 22 -40 0 -23 -10 7 -7 1 6 -13 13 -15 27 -25 31
-23 4 2 20 -10 36 -28 l29 -32 -32 29 c-20 18 -33 24 -33 16 0 -9 -9 -5 -27
11 -18 15 -16 11 6 -14 36 -38 48 -46 35 -24 -4 6 7 -1 24 -17 20 -19 32 -25
32 -16 0 8 36 -21 80 -65 44 -44 80 -76 80 -71 0 5 9 1 20 -9 15 -13 20 -15
20 -4 0 7 27 -13 60 -46 33 -33 60 -64 60 -69 0 -6 -28 16 -61 49 -34 33 -58
53 -54 45 5 -8 -4 -4 -18 9 -37 34 -34 14 4 -25 25 -26 28 -32 14 -38 -11 -4
-14 -2 -9 7 4 6 3 9 -1 4 -5 -4 -19 3 -32 15 -16 15 -23 17 -23 8 0 -8 -25 10
-55 40 -30 30 -55 59 -55 64 0 6 25 -14 55 -44 30 -30 55 -50 55 -45 0 4 11
-2 25 -15 14 -13 25 -19 25 -14 0 5 -43 52 -95 104 -52 52 -95 91 -95 86 0 -5
-11 1 -25 14 -16 15 -25 19 -25 10 0 -8 -16 1 -37 21 l-38 34 40 -43 c40 -43
52 -52 39 -29 -4 6 5 1 19 -12 18 -17 27 -20 27 -11 0 8 29 -15 65 -50 36 -35
65 -69 65 -74 0 -6 -28 16 -61 49 -34 33 -58 53 -54 45 5 -8 -6 -2 -23 14 -18
17 -32 25 -32 20 0 -5 43 -52 95 -104 52 -52 95 -91 95 -86 0 5 11 -1 25 -14
17 -16 25 -19 25 -9 0 7 38 -24 85 -71 47 -47 85 -81 85 -76 0 5 7 3 15 -4 12
-10 15 -10 15 0 0 9 4 9 17 -1 9 -8 6 2 -9 21 -14 19 -24 40 -22 45 2 6 -41
55 -96 110 -55 55 -100 96 -100 91 0 -5 -11 1 -25 14 -18 17 -25 19 -25 9 -1
-8 -60 47 -132 121 -72 74 -124 126 -115 114z m428 -409 c3 2 19 -10 35 -27
16 -18 21 -26 12 -19 -13 10 -18 10 -18 2 0 -7 -5 -9 -11 -5 -8 5 -8 9 1 14 9
5 9 9 1 14 -6 4 -11 1 -11 -6 0 -7 -24 10 -52 37 -49 47 -49 46 6 -12 33 -34
63 -60 66 -58 4 2 18 -8 31 -23 l24 -27 -27 24 c-28 25 -39 18 -16 -9 7 -8
-22 19 -65 60 -42 41 -75 79 -73 85 2 5 -1 19 -7 30 -5 11 15 -4 45 -33 30
-29 56 -50 59 -47z"/>
<path d="M2283 4145 c50 -55 47 -68 -5 -20 l-43 40 39 -42 c22 -24 42 -40 45
-38 2 3 20 -9 38 -27 18 -17 33 -28 33 -22 0 5 -33 41 -72 79 -40 39 -56 52
-35 30z"/>
<path d="M3010 4128 c41 -45 50 -53 50 -45 0 2 -21 23 -47 47 l-48 45 45 -47z"/>
<path d="M3116 4123 c-4 -9 -4 -14 0 -10 5 4 40 -23 78 -60 l70 -68 -64 70
c-35 39 -67 74 -71 78 -3 5 -9 0 -13 -10z"/>
<path d="M3210 4098 c24 -27 45 -48 47 -48 8 0 0 9 -44 50 l-48 45 45 -47z"/>
<path d="M3230 4105 c13 -14 26 -25 28 -25 3 0 -5 11 -18 25 -13 14 -26 25
-28 25 -3 0 5 -11 18 -25z"/>
<path d="M2120 4044 c41 -45 80 -80 86 -79 6 2 42 -28 80 -66 37 -37 70 -66
73 -64 2 3 17 -7 33 -22 18 -17 28 -22 28 -13 0 8 19 -3 43 -25 l42 -40 -44
47 c-25 26 -47 45 -50 43 -2 -3 -15 5 -28 17 -17 15 -23 18 -23 7 -1 -8 -63
49 -138 127 -75 77 -127 128 -114 114 37 -44 25 -47 -20 -5 -24 22 -9 3 32
-41z m55 -34 c21 -22 37 -40 34 -40 -3 0 -23 18 -44 40 -21 22 -37 40 -34 40
3 0 23 -18 44 -40z"/>
<path d="M3050 4055 c30 -30 57 -55 59 -55 3 0 -19 25 -49 55 -30 30 -57 55
-59 55 -3 0 19 -25 49 -55z"/>
<path d="M2005 4073 c3 -7 2 -13 -2 -13 -5 0 -9 -8 -10 -18 -1 -11 34 -55 88
-108 49 -49 89 -85 89 -80 0 5 11 -1 25 -14 17 -16 25 -19 25 -9 0 7 34 -20
75 -61 41 -41 75 -70 75 -65 0 5 15 -6 33 -23 26 -25 33 -29 32 -15 0 10 -4
18 -7 18 -4 0 -18 11 -32 24 -18 17 -26 20 -26 10 0 -8 -84 72 -186 176 -102
105 -182 184 -179 178z m127 -137 c51 -55 80 -90 65 -77 -18 16 -27 20 -27 11
0 -8 -21 6 -46 30 -55 54 -135 148 -115 135 11 -6 13 -4 7 10 -5 15 -4 16 9 5
8 -7 57 -58 107 -114z"/>
<path d="M2020 4027 c0 -1 35 -36 78 -77 l77 -75 -75 78 c-69 71 -80 82 -80
74z"/>
<path d="M3210 4005 c30 -30 57 -55 59 -55 3 0 -19 25 -49 55 -30 30 -57 55
-59 55 -3 0 19 -25 49 -55z"/>
<path d="M2350 3984 c0 -6 16 -25 35 -44 21 -20 35 -28 35 -20 0 8 27 -12 60
-45 33 -33 60 -55 60 -50 0 4 11 -2 25 -15 14 -13 25 -19 25 -13 0 5 -11 20
-25 33 -17 16 -25 19 -25 9 0 -7 -34 20 -75 61 -41 41 -75 71 -75 66 0 -5 -9
-1 -20 9 -11 10 -20 14 -20 9z m61 -41 c13 -16 12 -17 -3 -4 -10 7 -18 15 -18
17 0 8 8 3 21 -13z"/>
<path d="M3220 3938 c41 -45 50 -53 50 -45 0 2 -21 23 -47 47 l-48 45 45 -47z"/>
<path d="M3215 3880 c27 -27 51 -50 54 -50 3 0 -17 23 -44 50 -27 28 -51 50
-54 50 -3 0 17 -22 44 -50z"/>
<path d="M3100 3794 c0 -5 42 -50 92 -99 51 -50 67 -63 35 -30 -71 76 -75 96
-4 30 l52 -50 -49 52 c-28 29 -52 50 -55 48 -2 -3 -20 9 -38 27 -18 17 -33 28
-33 22z"/>
<path d="M2379 3773 c12 -24 31 -39 31 -25 0 5 -10 17 -21 28 -22 19 -22 19
-10 -3z"/>
<path d="M1995 3760 c4 -8 17 -26 29 -40 12 -15 7 -12 -15 8 -31 29 -36 30
-34 12 1 -11 7 -26 15 -33 10 -10 11 -9 5 3 -5 8 4 4 18 -9 18 -17 27 -20 27
-10 0 7 36 -22 80 -66 44 -44 80 -84 80 -90 0 -5 -36 26 -80 70 -44 44 -80 76
-80 71 0 -5 -9 -1 -20 9 -13 12 -20 14 -20 5 0 -10 -4 -10 -17 1 -15 11 -14 9
1 -9 11 -12 22 -20 24 -17 3 3 16 -5 29 -17 22 -21 24 -21 17 -3 -4 11 28 -14
70 -55 42 -41 76 -70 76 -65 0 5 14 -4 30 -20 17 -16 30 -23 30 -16 0 11 3 11
18 0 15 -13 16 -12 3 3 -7 10 -17 16 -21 13 -4 -2 -18 8 -31 23 l-24 27 28
-24 c17 -16 27 -20 27 -11 0 8 13 2 33 -16 l32 -29 -29 32 c-16 18 -32 31 -35
28 -2 -3 -18 7 -33 22 -24 23 -28 25 -23 8 4 -11 -44 32 -106 95 -62 63 -109
108 -104 100z"/>
<path d="M3120 3684 c0 -6 14 -23 30 -39 19 -18 30 -23 30 -15 0 8 21 -6 48
-30 l47 -45 -49 52 c-28 29 -52 50 -55 48 -2 -3 -15 5 -28 17 -13 12 -23 17
-23 12z"/>
<path d="M2018 3615 c15 -30 52 -61 52 -44 0 7 26 -11 58 -41 l57 -55 -54 57
c-30 32 -57 55 -60 53 -2 -3 -18 7 -34 22 -22 21 -27 23 -19 8z"/>
<path d="M1984 3562 c11 -12 22 -20 24 -17 3 3 18 -7 34 -22 17 -16 28 -22 28
-13 0 8 13 2 33 -16 l32 -29 -29 32 c-16 18 -32 31 -35 28 -2 -3 -17 7 -33 22
-17 16 -28 21 -28 13 0 -9 -6 -8 -22 6 l-23 19 19 -23z"/>
<path d="M2030 3896 c0 -2 8 -10 18 -17 15 -13 16 -12 3 4 -13 16 -21 21 -21
13z"/>
<path d="M2380 3500 c0 -5 5 -10 11 -10 5 0 7 5 4 10 -3 6 -8 10 -11 10 -2 0
-4 -4 -4 -10z"/>
<path d="M2929 3555 c24 -27 48 -54 53 -60 6 -6 6 -2 2 10 l-7 20 24 -20 24
-20 -19 23 c-11 12 -22 20 -24 17 -3 -3 -26 14 -51 37 l-45 43 43 -50z"/>
<path d="M2660 3656 c0 -2 8 -10 18 -17 15 -13 16 -12 3 4 -13 16 -21 21 -21
13z"/>
<path d="M817 3566 c-4 -10 -5 -21 -2 -24 9 -9 17 6 13 25 -3 17 -4 17 -11 -1z"/>
<path d="M2835 3439 c32 -39 65 -102 65 -125 0 -10 -12 7 -27 36 -16 30 -35
56 -43 59 -11 3 -12 1 -4 -10 5 -8 16 -27 23 -44 l12 -30 -30 35 c-34 39 -39
37 -16 -6 23 -44 18 -61 -7 -24 -13 18 -35 42 -49 52 -29 22 -95 34 -133 24
-35 -9 -96 -64 -112 -101 -9 -19 -13 -24 -14 -12 0 32 -17 9 -30 -40 -10 -39
-14 -44 -20 -28 -7 18 -8 19 -15 2 -4 -9 -5 -26 -2 -37 8 -29 -2 -24 -15 8 -9
21 -12 23 -15 9 -8 -31 17 -87 40 -92 51 -11 248 -25 349 -25 106 0 108 0 125
27 14 21 18 48 18 118 0 101 -12 134 -73 198 -44 45 -64 50 -27 6z m-95 -71
c54 -37 73 -71 76 -135 l4 -58 -15 45 c-20 62 -36 90 -57 101 -17 9 -16 7 2
-23 11 -18 19 -49 19 -68 -1 -33 -2 -33 -9 9 -8 51 -46 91 -86 91 -54 0 -102
-45 -105 -98 -1 -11 -4 -8 -10 8 -6 19 -8 11 -6 -31 3 -55 3 -55 -16 -36 -16
16 -18 29 -15 69 8 80 76 148 148 148 22 0 51 -9 70 -22z m-57 -65 c-7 -2 -19
-2 -25 0 -7 3 -2 5 12 5 14 0 19 -2 13 -5z m38 -20 c13 -16 12 -17 -3 -4 -17
13 -22 21 -14 21 2 0 10 -8 17 -17z m-19 -20 c10 -9 18 -24 18 -34 0 -21 -26
-49 -46 -49 -21 0 -17 17 6 23 16 4 18 8 8 29 -10 21 -15 23 -34 14 -16 -8
-20 -14 -12 -23 11 -14 1 -36 -13 -28 -13 9 -11 59 3 73 17 17 48 15 70 -5z"/>
<path d="M2084 3356 c-3 -8 -4 -31 -2 -52 3 -38 4 -39 43 -42 58 -3 68 6 60
62 l-7 46 -44 0 c-29 0 -47 -5 -50 -14z m84 -48 c3 -15 -4 -18 -32 -18 -30 0
-36 4 -36 21 0 17 5 20 32 17 22 -2 34 -9 36 -20z"/>
<path d="M1960 3340 c-22 -7 -21 -8 13 -9 30 -1 37 -5 37 -21 0 -15 -7 -20
-24 -20 -14 0 -28 -4 -31 -10 -4 -6 10 -10 34 -10 l41 0 0 40 c0 35 -3 40 -22
39 -13 -1 -34 -5 -48 -9z"/>
<path d="M1970 3070 l0 -80 30 0 30 0 0 80 0 80 -30 0 -30 0 0 -80z"/>
<path d="M2226 2901 c-3 -5 -3 -30 0 -55 l7 -47 46 3 c42 3 46 5 49 32 2 15 1
39 -2 52 -6 21 -12 24 -51 24 -24 0 -46 -4 -49 -9z m84 -56 c0 -26 -22 -33
-49 -16 -21 13 -5 41 24 41 20 0 25 -5 25 -25z"/>
<path d="M2364 2895 c-6 -14 1 -83 8 -90 2 -2 25 -1 51 2 l48 6 -3 46 -3 46
-48 3 c-36 2 -49 -1 -53 -13z m86 -45 c0 -16 -7 -20 -30 -20 -23 0 -30 4 -30
20 0 16 7 20 30 20 23 0 30 -4 30 -20z"/>
<path d="M2080 2850 l0 -50 50 0 50 0 0 50 0 50 -50 0 -50 0 0 -50z m80 -5 c0
-21 -5 -25 -30 -25 -41 0 -43 37 -2 43 15 2 28 5 30 6 1 0 2 -10 2 -24z"/>
<path d="M1885 2880 c-4 -6 16 -10 59 -10 62 0 66 -1 66 -23 0 -18 -8 -26 -37
-34 l-38 -11 50 1 50 2 0 40 0 40 -72 3 c-42 2 -74 -1 -78 -8z"/>
<path d="M3072 3093 l3 -78 33 -3 32 -3 0 80 0 81 -35 0 -36 0 3 -77z"/>
<path d="M1695 3073 c-3 -16 -16 -38 -27 -50 l-21 -23 21 0 c26 0 52 36 52 72
0 36 -16 36 -25 1z"/>
<path d="M3867 2916 c-3 -8 2 -16 11 -18 10 -3 30 -29 45 -59 24 -45 25 -50 7
-29 -24 28 -24 28 19 -83 33 -84 38 -116 19 -135 -14 -14 -7 -15 51 -1 52 12
66 3 81 -49 8 -31 6 -44 -15 -84 -30 -58 -32 -83 -3 -45 11 16 31 33 44 38 34
12 30 36 -21 134 -53 103 -211 345 -224 345 -5 0 -11 -6 -14 -14z"/>
<path d="M4008 2568 c-16 -5 -28 -17 -28 -27 0 -17 19 -81 26 -90 2 -2 21 8
43 22 39 26 39 26 29 67 -11 43 -21 47 -70 28z m56 -33 c3 -8 1 -15 -4 -15 -6
0 -10 7 -10 15 0 8 2 15 4 15 2 0 6 -7 10 -15z m-28 -50 c-21 -16 -32 -13 -21
4 3 6 14 11 23 11 15 -1 15 -2 -2 -15z"/>
<path d="M4025 2341 c11 -68 89 -320 100 -323 10 -2 55 68 55 87 0 6 -10 15
-22 20 -31 14 -65 68 -83 130 -9 28 -25 69 -36 91 l-21 39 7 -44z"/>
<path d="M3755 2613 c-33 -14 -61 -26 -63 -27 -7 -8 22 -66 32 -63 6 3 39 17
73 32 60 27 61 27 51 56 -12 34 -16 35 -93 2z"/>
<path d="M3637 2409 c-46 -24 -53 -40 -37 -79 13 -32 20 -34 60 -23 24 7 23 8
-9 13 -19 3 -37 12 -39 20 -4 12 -3 13 10 2 17 -14 98 -6 98 9 0 13 -33 79
-39 79 -3 -1 -23 -10 -44 -21z m63 -47 c0 -15 -2 -15 -10 -2 -13 20 -13 33 0
25 6 -3 10 -14 10 -23z m-40 -2 c0 -5 -7 -10 -16 -10 -8 0 -12 5 -9 10 3 6 10
10 16 10 5 0 9 -4 9 -10z"/>
<path d="M3684 2281 c-53 -24 -58 -33 -40 -76 14 -32 18 -35 43 -29 39 10 41
14 6 14 -28 0 -52 24 -38 38 2 3 7 -3 11 -12 5 -14 15 -16 53 -10 25 4 47 8
49 9 5 4 -30 85 -37 85 -3 0 -25 -9 -47 -19z m66 -42 c0 -5 -4 -9 -10 -9 -5 0
-10 7 -10 16 0 8 5 12 10 9 6 -3 10 -10 10 -16z m-40 -9 c0 -5 -7 -10 -15 -10
-8 0 -15 5 -15 10 0 6 7 10 15 10 8 0 15 -4 15 -10z"/>
<path d="M3735 2148 c-63 -34 -64 -35 -52 -73 9 -31 14 -35 43 -35 18 0 35 4
39 9 3 6 -8 8 -28 4 -29 -4 -35 -2 -40 17 -5 20 -4 21 12 6 13 -12 24 -14 51
-6 18 5 37 7 41 4 12 -7 11 0 -7 46 -17 42 -26 46 -59 28z m55 -49 c0 -5 -4
-9 -10 -9 -5 0 -10 7 -10 16 0 8 5 12 10 9 6 -3 10 -10 10 -16z m-43 -5 c-3
-3 -12 -4 -19 -1 -8 3 -5 6 6 6 11 1 17 -2 13 -5z"/>
<path d="M4305 2678 c22 -25 45 -45 51 -43 6 2 29 -15 50 -38 l39 -42 -42 40
c-24 21 -43 35 -43 29 0 -5 44 -52 97 -104 54 -52 76 -72 50 -45 -61 66 -61
82 1 25 45 -44 45 -43 -5 10 -66 69 -69 90 -5 30 l47 -45 -50 53 c-50 52 -62
62 -49 40 4 -7 -14 7 -40 32 -25 24 -46 38 -46 30 0 -8 -21 6 -47 30 l-47 45
39 -47z m150 -128 c3 -5 1 -10 -4 -10 -6 0 -11 5 -11 10 0 6 2 10 4 10 3 0 8
-4 11 -10z"/>
<path d="M4324 2692 c16 -17 32 -29 35 -27 2 3 22 -12 43 -32 27 -26 37 -32
32 -18 -4 12 17 -2 51 -35 32 -30 55 -50 51 -43 -3 6 -1 13 4 15 6 2 -10 23
-35 48 -25 24 -45 38 -45 30 0 -8 -14 0 -35 20 -19 19 -35 30 -35 25 0 -5 -11
2 -25 15 -16 15 -25 19 -25 10 0 -9 -7 -8 -22 6 -13 10 -10 4 6 -14z m36 -12
c0 -5 -2 -10 -4 -10 -3 0 -8 5 -11 10 -3 6 -1 10 4 10 6 0 11 -4 11 -10z m55
-30 c10 -11 16 -20 13 -20 -3 0 -13 9 -23 20 -10 11 -16 20 -13 20 3 0 13 -9
23 -20z m85 -65 c19 -19 32 -35 29 -35 -3 0 -20 16 -39 35 -19 19 -32 35 -29
35 3 0 20 -16 39 -35z"/>
<path d="M4376 2698 c3 -5 9 -6 13 -4 4 3 21 -8 36 -24 15 -16 31 -27 35 -25
4 2 22 -11 40 -30 33 -34 65 -50 41 -21 -8 10 -9 15 -1 18 6 2 -13 26 -42 53
-52 49 -52 49 -10 5 62 -67 51 -73 -15 -10 -32 30 -47 43 -34 28 14 -16 22
-30 19 -33 -3 -3 -16 7 -30 23 -21 25 -66 43 -52 20z"/>
<path d="M4510 2675 c19 -19 36 -35 39 -35 3 0 -10 16 -29 35 -19 19 -36 35
-39 35 -3 0 10 -16 29 -35z"/>
<path d="M4150 2694 c0 -6 19 -28 41 -49 23 -22 37 -31 31 -20 -13 26 -72 82
-72 69z"/>
<path d="M4392 2530 c3 -8 12 -14 21 -14 9 1 13 -4 11 -11 -3 -7 -1 -16 5 -20
6 -3 11 0 11 7 0 7 24 -10 53 -37 48 -46 48 -45 -7 12 -33 34 -62 60 -65 58
-2 -3 -11 1 -19 8 -13 10 -14 9 -10 -3z"/>
<path d="M4370 2524 c0 -5 18 -28 41 -49 27 -27 38 -33 33 -20 -4 12 17 -2 52
-35 l59 -55 -54 57 c-30 32 -57 55 -60 53 -2 -3 -20 9 -38 27 -18 17 -33 27
-33 22z"/>
<path d="M4360 2472 c40 -45 76 -80 79 -77 3 3 -30 40 -74 83 l-78 77 73 -83z"/>
<path d="M4230 2486 c0 -2 8 -10 18 -17 15 -13 16 -12 3 4 -13 16 -21 21 -21
13z"/>
<path d="M4288 2400 c39 -44 42 -63 5 -29 l-28 24 22 -25 c14 -16 21 -35 19
-52 -2 -16 3 -33 12 -40 13 -11 14 -10 8 2 -5 8 23 -16 61 -54 44 -42 72 -63
75 -55 3 10 6 10 12 1 4 -7 2 -12 -4 -12 -6 0 -8 -6 -4 -12 4 -7 -25 18 -65
57 -39 38 -71 63 -71 56 0 -11 -3 -11 -17 0 -27 21 60 -80 111 -131 25 -24 46
-38 46 -31 0 10 6 9 23 -5 l22 -19 -19 22 c-10 13 -22 21 -26 18 -3 -2 -35 26
-71 63 l-64 67 68 -65 c37 -35 67 -58 67 -50 0 9 9 6 28 -11 l27 -24 -22 26
c-13 14 -23 29 -23 34 0 4 10 0 23 -11 12 -11 9 -5 -7 13 -16 18 -32 30 -36
28 -3 -2 -40 31 -81 73 l-74 77 78 -75 c42 -41 77 -68 77 -60 0 8 15 1 38 -21
l37 -34 -40 43 c-40 43 -52 52 -39 30 4 -7 -25 18 -65 57 -39 38 -71 72 -71
74 0 3 29 -24 65 -59 36 -35 65 -58 65 -50 0 8 18 -2 42 -25 23 -22 1 5 -49
60 -50 55 -101 109 -114 120 -13 11 -18 13 -11 5 28 -32 9 -32 -25 1 l-38 34
33 -35z m107 -90 c33 -33 57 -60 54 -60 -2 0 -31 27 -64 60 -33 33 -57 60 -54
60 2 0 31 -27 64 -60z"/>
<path d="M4340 2102 c0 -8 -5 -10 -12 -6 -7 4 -8 3 -4 -5 4 -6 11 -9 16 -6 4
3 38 -25 75 -63 37 -37 62 -58 57 -47 -15 29 -132 142 -132 127z"/>
<path d="M4470 2056 c0 -2 8 -10 18 -17 15 -13 16 -12 3 4 -13 16 -21 21 -21
13z"/>
<path d="M4265 2090 c3 -5 8 -10 11 -10 2 0 4 5 4 10 0 6 -5 10 -11 10 -5 0
-7 -4 -4 -10z"/>
<path d="M2244 1532 c-13 -8 -34 -46 -34 -61 0 -7 10 -7 30 0 36 13 61 8 400
-76 352 -88 370 -94 396 -133 l22 -32 20 67 c11 38 23 84 27 103 l7 35 -29
-28 -30 -28 -84 21 c-46 11 -100 25 -120 30 -20 6 -47 10 -60 9 -20 0 -19 -3
11 -14 19 -7 32 -14 28 -14 -3 -1 -122 28 -265 64 -255 64 -297 72 -319 57z"/>
<path d="M1732 1472 c-1 -12 -11 -40 -21 -61 -16 -31 -31 -42 -90 -66 -39 -15
-71 -34 -71 -40 0 -7 -17 -16 -37 -20 -29 -5 -40 -3 -50 11 -12 17 -13 17 -13
-3 0 -11 7 -26 15 -33 22 -18 117 -7 190 22 75 30 87 52 82 145 -2 38 -4 58
-5 45z"/>
<path d="M3892 1415 c-22 -18 -32 -22 -35 -13 -3 7 -6 -15 -6 -49 -1 -35 3
-63 8 -63 5 0 23 16 40 35 24 27 31 45 31 75 0 22 -2 40 -4 40 -3 0 -18 -11
-34 -25z"/>
<path d="M695 1240 c10 -11 20 -20 23 -20 3 0 -3 9 -13 20 -10 11 -20 20 -23
20 -3 0 3 -9 13 -20z"/>
<path d="M1687 1024 c-3 -16 -29 -54 -57 -84 -32 -34 -43 -43 -30 -22 32 48
11 39 -42 -20 -44 -49 -48 -51 -74 -40 -14 7 -28 11 -29 10 -6 -6 164 -182
170 -177 3 3 -1 19 -10 35 -8 16 -15 41 -15 55 0 27 108 203 129 210 6 2 1 16
-13 33 l-23 29 -6 -29z"/>
<path d="M1544 2136 c-7 -31 2 -116 15 -129 12 -12 212 -30 222 -20 4 4 9 39
10 76 3 78 -4 87 -66 87 -22 0 -70 3 -107 6 -67 7 -67 7 -74 -20z m111 -21
c68 -14 68 -14 15 -10 -30 3 -67 5 -82 5 -16 0 -28 5 -28 10 0 13 9 12 95 -5z
m15 -35 c18 -6 6 -8 -42 -8 -38 1 -68 5 -68 9 0 11 76 10 110 -1z m-35 -29
c40 -9 39 -9 -17 -10 -33 0 -58 3 -58 9 0 12 20 12 75 1z"/>
</g>
</svg>
